<?xml version="1.0" encoding="UTF-8" standalone="no"?>
<!DOCTYPE svg PUBLIC "-//W3C//DTD SVG 1.1//EN"
 "http://www.w3.org/Graphics/SVG/1.1/DTD/svg11.dtd">
<!-- Generated by graphviz version 3.0.0 (20221109.1736)
 -->
<!-- Title: Lvl3Mage.EditorEnhancements.Runtime.ActionButton Pages: 1 -->
<svg width="475pt" height="88pt"
 viewBox="0.00 0.00 475.00 88.00" xmlns="http://www.w3.org/2000/svg" xmlns:xlink="http://www.w3.org/1999/xlink">
<g id="graph0" class="graph" transform="scale(1 1) rotate(0) translate(4 84)">
<title>Lvl3Mage.EditorEnhancements.Runtime.ActionButton</title>
<polygon fill="white" stroke="transparent" points="-4,4 -4,-84 471,-84 471,4 -4,4"/>
<!-- Node1 -->
<g id="node1" class="node">
<title>Node1</title>
<g id="a_node1"><a xlink:title="An attribute that adds a button to the inspector. The button will call a method on the target object ...">
<polygon fill="#bfbfbf" stroke="black" points="125,-24.5 125,-54.5 278,-54.5 278,-24.5 125,-24.5"/>
<text text-anchor="start" x="133" y="-42.5" font-family="Helvetica,sans-Serif" font-size="10.00">Lvl3Mage.EditorEnhancements.</text>
<text text-anchor="middle" x="201.5" y="-31.5" font-family="Helvetica,sans-Serif" font-size="10.00">Runtime.ActionButton</text>
</a>
</g>
</g>
<!-- Node3 -->
<g id="node3" class="node">
<title>Node3</title>
<g id="a_node3"><a xlink:href="a00085.html" target="_top" xlink:title=" ">
<polygon fill="white" stroke="#bfbfbf" points="314,-49.5 314,-79.5 467,-79.5 467,-49.5 314,-49.5"/>
<text text-anchor="start" x="322" y="-67.5" font-family="Helvetica,sans-Serif" font-size="10.00">Lvl3Mage.EditorEnhancements.</text>
<text text-anchor="middle" x="390.5" y="-56.5" font-family="Helvetica,sans-Serif" font-size="10.00">Runtime.FieldActionButton</text>
</a>
</g>
</g>
<!-- Node1&#45;&gt;Node3 -->
<g id="edge2" class="edge">
<title>Node1&#45;&gt;Node3</title>
<path fill="none" stroke="midnightblue" d="M288.02,-50.93C296.58,-52.08 305.24,-53.24 313.7,-54.37"/>
<polygon fill="midnightblue" stroke="midnightblue" points="288.4,-47.45 278.02,-49.6 287.47,-54.39 288.4,-47.45"/>
</g>
<!-- Node4 -->
<g id="node4" class="node">
<title>Node4</title>
<g id="a_node4"><a xlink:href="a00089.html" target="_top" xlink:title=" ">
<polygon fill="white" stroke="#bfbfbf" points="314,-0.5 314,-30.5 467,-30.5 467,-0.5 314,-0.5"/>
<text text-anchor="start" x="322" y="-18.5" font-family="Helvetica,sans-Serif" font-size="10.00">Lvl3Mage.EditorEnhancements.</text>
<text text-anchor="middle" x="390.5" y="-7.5" font-family="Helvetica,sans-Serif" font-size="10.00">Runtime.ParentActionButton</text>
</a>
</g>
</g>
<!-- Node1&#45;&gt;Node4 -->
<g id="edge3" class="edge">
<title>Node1&#45;&gt;Node4</title>
<path fill="none" stroke="midnightblue" d="M288.02,-28.52C296.58,-27.42 305.24,-26.31 313.7,-25.23"/>
<polygon fill="midnightblue" stroke="midnightblue" points="287.49,-25.06 278.02,-29.81 288.39,-32.01 287.49,-25.06"/>
</g>
<!-- Node2 -->
<g id="node2" class="node">
<title>Node2</title>
<g id="a_node2"><a xlink:title=" ">
<polygon fill="white" stroke="#bfbfbf" points="0,-30 0,-49 89,-49 89,-30 0,-30"/>
<text text-anchor="middle" x="44.5" y="-37" font-family="Helvetica,sans-Serif" font-size="10.00">PropertyAttribute</text>
</a>
</g>
</g>
<!-- Node2&#45;&gt;Node1 -->
<g id="edge1" class="edge">
<title>Node2&#45;&gt;Node1</title>
<path fill="none" stroke="midnightblue" d="M99.34,-39.5C107.62,-39.5 116.3,-39.5 124.95,-39.5"/>
<polygon fill="midnightblue" stroke="midnightblue" points="99.09,-36 89.09,-39.5 99.09,-43 99.09,-36"/>
</g>
</g>
</svg>
