<?xml version="1.0" encoding="UTF-8" standalone="no"?>
<!DOCTYPE svg PUBLIC "-//W3C//DTD SVG 1.1//EN"
 "http://www.w3.org/Graphics/SVG/1.1/DTD/svg11.dtd">
<!-- Generated by graphviz version 3.0.0 (20221109.1736)
 -->
<!-- Title: Lvl3Mage.EditorEnhancements.Runtime.FieldActionButton Pages: 1 -->
<svg width="161pt" height="151pt"
 viewBox="0.00 0.00 161.00 151.00" xmlns="http://www.w3.org/2000/svg" xmlns:xlink="http://www.w3.org/1999/xlink">
<g id="graph0" class="graph" transform="scale(1 1) rotate(0) translate(4 147)">
<title>Lvl3Mage.EditorEnhancements.Runtime.FieldActionButton</title>
<polygon fill="white" stroke="transparent" points="-4,4 -4,-147 157,-147 157,4 -4,4"/>
<!-- Node1 -->
<g id="node1" class="node">
<title>Node1</title>
<g id="a_node1"><a xlink:title=" ">
<polygon fill="#bfbfbf" stroke="black" points="0,-0.5 0,-30.5 153,-30.5 153,-0.5 0,-0.5"/>
<text text-anchor="start" x="8" y="-18.5" font-family="Helvetica,sans-Serif" font-size="10.00">Lvl3Mage.EditorEnhancements.</text>
<text text-anchor="middle" x="76.5" y="-7.5" font-family="Helvetica,sans-Serif" font-size="10.00">Runtime.FieldActionButton</text>
</a>
</g>
</g>
<!-- Node2 -->
<g id="node2" class="node">
<title>Node2</title>
<g id="a_node2"><a xlink:href="a00091.html" target="_top" xlink:title="An attribute that adds a button to the inspector. The button will call a method on the target object ...">
<polygon fill="white" stroke="black" points="40,-67.5 40,-86.5 113,-86.5 113,-67.5 40,-67.5"/>
<text text-anchor="middle" x="76.5" y="-74.5" font-family="Helvetica,sans-Serif" font-size="10.00">ActionButton</text>
</a>
</g>
</g>
<!-- Node2&#45;&gt;Node1 -->
<g id="edge1" class="edge">
<title>Node2&#45;&gt;Node1</title>
<path fill="none" stroke="midnightblue" d="M76.5,-57.23C76.5,-48.59 76.5,-38.5 76.5,-30.52"/>
<polygon fill="midnightblue" stroke="midnightblue" points="73,-57.48 76.5,-67.48 80,-57.48 73,-57.48"/>
</g>
<!-- Node3 -->
<g id="node3" class="node">
<title>Node3</title>
<g id="a_node3"><a xlink:title=" ">
<polygon fill="white" stroke="#bfbfbf" points="32,-123.5 32,-142.5 121,-142.5 121,-123.5 32,-123.5"/>
<text text-anchor="middle" x="76.5" y="-130.5" font-family="Helvetica,sans-Serif" font-size="10.00">PropertyAttribute</text>
</a>
</g>
</g>
<!-- Node3&#45;&gt;Node2 -->
<g id="edge2" class="edge">
<title>Node3&#45;&gt;Node2</title>
<path fill="none" stroke="midnightblue" d="M76.5,-112.8C76.5,-103.91 76.5,-93.78 76.5,-86.75"/>
<polygon fill="midnightblue" stroke="midnightblue" points="73,-113.08 76.5,-123.08 80,-113.08 73,-113.08"/>
</g>
</g>
</svg>
