<?xml version="1.0" encoding="UTF-8" standalone="no"?>
<!DOCTYPE svg PUBLIC "-//W3C//DTD SVG 1.1//EN"
 "http://www.w3.org/Graphics/SVG/1.1/DTD/svg11.dtd">
<!-- Generated by graphviz version 3.0.0 (20221109.1736)
 -->
<!-- Title: Lvl3Mage.EditorEnhancements.Runtime.MethodSourceLabeledField Pages: 1 -->
<svg width="221pt" height="95pt"
 viewBox="0.00 0.00 220.50 95.00" xmlns="http://www.w3.org/2000/svg" xmlns:xlink="http://www.w3.org/1999/xlink">
<g id="graph0" class="graph" transform="scale(1 1) rotate(0) translate(4 91)">
<title>Lvl3Mage.EditorEnhancements.Runtime.MethodSourceLabeledField</title>
<polygon fill="white" stroke="transparent" points="-4,4 -4,-91 216.5,-91 216.5,4 -4,4"/>
<!-- Node1 -->
<g id="node1" class="node">
<title>Node1</title>
<g id="a_node1"><a xlink:title=" ">
<polygon fill="#bfbfbf" stroke="black" points="15,-0.5 15,-30.5 188,-30.5 188,-0.5 15,-0.5"/>
<text text-anchor="start" x="23" y="-18.5" font-family="Helvetica,sans-Serif" font-size="10.00">Lvl3Mage.EditorEnhancements.</text>
<text text-anchor="middle" x="101.5" y="-7.5" font-family="Helvetica,sans-Serif" font-size="10.00">Runtime.MethodSourceLabeledField</text>
</a>
</g>
</g>
<!-- Node2 -->
<g id="node2" class="node">
<title>Node2</title>
<g id="a_node2"><a xlink:title=" ">
<polygon fill="white" stroke="#bfbfbf" points="0,-67.5 0,-86.5 89,-86.5 89,-67.5 0,-67.5"/>
<text text-anchor="middle" x="44.5" y="-74.5" font-family="Helvetica,sans-Serif" font-size="10.00">PropertyAttribute</text>
</a>
</g>
</g>
<!-- Node2&#45;&gt;Node1 -->
<g id="edge1" class="edge">
<title>Node2&#45;&gt;Node1</title>
<path fill="none" stroke="midnightblue" d="M59.74,-60.09C68.56,-50.88 79.57,-39.39 88.07,-30.52"/>
<polygon fill="midnightblue" stroke="midnightblue" points="57.06,-57.83 52.67,-67.48 62.11,-62.68 57.06,-57.83"/>
</g>
<!-- Node3 -->
<g id="node3" class="node">
<title>Node3</title>
<g id="a_node3"><a xlink:href="a00101.html" target="_top" xlink:title="An interface that defines a labeled field.">
<polygon fill="white" stroke="black" points="106.5,-67.5 106.5,-86.5 212.5,-86.5 212.5,-67.5 106.5,-67.5"/>
<text text-anchor="middle" x="159.5" y="-74.5" font-family="Helvetica,sans-Serif" font-size="10.00">ISourceLabeledField</text>
</a>
</g>
</g>
<!-- Node3&#45;&gt;Node1 -->
<g id="edge2" class="edge">
<title>Node3&#45;&gt;Node1</title>
<path fill="none" stroke="midnightblue" d="M143.99,-60.09C135.01,-50.88 123.82,-39.39 115.17,-30.52"/>
<polygon fill="midnightblue" stroke="midnightblue" points="141.7,-62.76 151.19,-67.48 146.72,-57.87 141.7,-62.76"/>
</g>
</g>
</svg>
