<?xml version="1.0" encoding="UTF-8" standalone="no"?>
<!DOCTYPE svg PUBLIC "-//W3C//DTD SVG 1.1//EN"
 "http://www.w3.org/Graphics/SVG/1.1/DTD/svg11.dtd">
<!-- Generated by graphviz version 3.0.0 (20221109.1736)
 -->
<!-- Title: Graphical Class Hierarchy Pages: 1 -->
<svg width="563pt" height="333pt"
 viewBox="0.00 0.00 563.00 333.00" xmlns="http://www.w3.org/2000/svg" xmlns:xlink="http://www.w3.org/1999/xlink">
<g id="graph0" class="graph" transform="scale(1 1) rotate(0) translate(4 329)">
<title>Graphical Class Hierarchy</title>
<polygon fill="white" stroke="transparent" points="-4,4 -4,-329 559,-329 559,4 -4,4"/>
<!-- Node0 -->
<g id="node1" class="node">
<title>Node0</title>
<g id="a_node1"><a xlink:href="a00127.html" target="_top" xlink:title=" ">
<polygon fill="white" stroke="black" points="0,-294.5 0,-324.5 153,-324.5 153,-294.5 0,-294.5"/>
<text text-anchor="start" x="8" y="-312.5" font-family="Helvetica,sans-Serif" font-size="10.00">Lvl3Mage.EditorEnhancements.</text>
<text text-anchor="middle" x="76.5" y="-301.5" font-family="Helvetica,sans-Serif" font-size="10.00">Runtime.IMessageBoxDisplay</text>
</a>
</g>
</g>
<!-- Node1 -->
<g id="node2" class="node">
<title>Node1</title>
<g id="a_node2"><a xlink:href="a00135.html" target="_top" xlink:title=" ">
<polygon fill="white" stroke="black" points="201,-294.5 201,-324.5 354,-324.5 354,-294.5 201,-294.5"/>
<text text-anchor="start" x="209" y="-312.5" font-family="Helvetica,sans-Serif" font-size="10.00">Lvl3Mage.EditorEnhancements.</text>
<text text-anchor="middle" x="277.5" y="-301.5" font-family="Helvetica,sans-Serif" font-size="10.00">Runtime.MessageBoxDisplay</text>
</a>
</g>
</g>
<!-- Node0&#45;&gt;Node1 -->
<g id="edge1" class="edge">
<title>Node0&#45;&gt;Node1</title>
<path fill="none" stroke="midnightblue" d="M163.37,-309.5C175.79,-309.5 188.5,-309.5 200.7,-309.5"/>
<polygon fill="midnightblue" stroke="midnightblue" points="163.02,-306 153.02,-309.5 163.02,-313 163.02,-306"/>
</g>
<!-- Node9 -->
<g id="node3" class="node">
<title>Node9</title>
<g id="a_node3"><a xlink:href="a00115.html" target="_top" xlink:title="An interface that defines a labeled field.">
<polygon fill="white" stroke="black" points="0,-220.5 0,-250.5 153,-250.5 153,-220.5 0,-220.5"/>
<text text-anchor="start" x="8" y="-238.5" font-family="Helvetica,sans-Serif" font-size="10.00">Lvl3Mage.EditorEnhancements.</text>
<text text-anchor="middle" x="76.5" y="-227.5" font-family="Helvetica,sans-Serif" font-size="10.00">Runtime.ISourceLabeledField</text>
</a>
</g>
</g>
<!-- Node8 -->
<g id="node4" class="node">
<title>Node8</title>
<g id="a_node4"><a xlink:href="a00123.html" target="_top" xlink:title=" ">
<polygon fill="white" stroke="black" points="191,-196.5 191,-226.5 364,-226.5 364,-196.5 191,-196.5"/>
<text text-anchor="start" x="199" y="-214.5" font-family="Helvetica,sans-Serif" font-size="10.00">Lvl3Mage.EditorEnhancements.</text>
<text text-anchor="middle" x="277.5" y="-203.5" font-family="Helvetica,sans-Serif" font-size="10.00">Runtime.MethodSourceLabeledField</text>
</a>
</g>
</g>
<!-- Node9&#45;&gt;Node8 -->
<g id="edge2" class="edge">
<title>Node9&#45;&gt;Node8</title>
<path fill="none" stroke="midnightblue" d="M163.22,-225.16C172.33,-224.06 181.6,-222.95 190.71,-221.85"/>
<polygon fill="midnightblue" stroke="midnightblue" points="162.53,-221.72 153.02,-226.39 163.36,-228.67 162.53,-221.72"/>
</g>
<!-- Node10 -->
<g id="node5" class="node">
<title>Node10</title>
<g id="a_node5"><a xlink:href="a00119.html" target="_top" xlink:title=" ">
<polygon fill="white" stroke="black" points="189,-245.5 189,-275.5 366,-275.5 366,-245.5 189,-245.5"/>
<text text-anchor="start" x="197" y="-263.5" font-family="Helvetica,sans-Serif" font-size="10.00">Lvl3Mage.EditorEnhancements.</text>
<text text-anchor="middle" x="277.5" y="-252.5" font-family="Helvetica,sans-Serif" font-size="10.00">Runtime.PropertySourceLabeledField</text>
</a>
</g>
</g>
<!-- Node9&#45;&gt;Node10 -->
<g id="edge3" class="edge">
<title>Node9&#45;&gt;Node10</title>
<path fill="none" stroke="midnightblue" d="M162.95,-246.23C171.47,-247.31 180.14,-248.39 188.69,-249.47"/>
<polygon fill="midnightblue" stroke="midnightblue" points="163.38,-242.76 153.02,-244.99 162.5,-249.71 163.38,-242.76"/>
</g>
<!-- Node2 -->
<g id="node6" class="node">
<title>Node2</title>
<g id="a_node6"><a xlink:title=" ">
<polygon fill="white" stroke="#bfbfbf" points="32,-153 32,-172 121,-172 121,-153 32,-153"/>
<text text-anchor="middle" x="76.5" y="-160" font-family="Helvetica,sans-Serif" font-size="10.00">PropertyAttribute</text>
</a>
</g>
</g>
<!-- Node2&#45;&gt;Node1 -->
<g id="edge9" class="edge">
<title>Node2&#45;&gt;Node1</title>
<path fill="none" stroke="midnightblue" d="M107.31,-176.87C122.47,-185.31 140.31,-197.15 153,-211.5 177.22,-238.9 160.86,-262.14 189,-285.5 193.12,-288.92 197.69,-291.86 202.52,-294.38"/>
<polygon fill="midnightblue" stroke="midnightblue" points="108.77,-173.67 98.3,-172.05 105.47,-179.85 108.77,-173.67"/>
</g>
<!-- Node2&#45;&gt;Node8 -->
<g id="edge10" class="edge">
<title>Node2&#45;&gt;Node8</title>
<path fill="none" stroke="midnightblue" d="M126.29,-174.51C153.18,-181.14 186.81,-189.42 215.43,-196.46"/>
<polygon fill="midnightblue" stroke="midnightblue" points="126.89,-171.06 116.34,-172.06 125.21,-177.85 126.89,-171.06"/>
</g>
<!-- Node2&#45;&gt;Node10 -->
<g id="edge11" class="edge">
<title>Node2&#45;&gt;Node10</title>
<path fill="none" stroke="midnightblue" d="M101.26,-177.65C116.19,-187.24 135.81,-199.96 153,-211.5 169.17,-222.36 171.35,-228.25 189,-236.5 196.13,-239.84 203.82,-242.78 211.57,-245.37"/>
<polygon fill="midnightblue" stroke="midnightblue" points="102.94,-174.57 92.63,-172.12 99.16,-180.47 102.94,-174.57"/>
</g>
<!-- Node3 -->
<g id="node7" class="node">
<title>Node3</title>
<g id="a_node7"><a xlink:href="a00091.html" target="_top" xlink:title="An attribute that adds a button to the inspector. The button will call a method on the target object ...">
<polygon fill="white" stroke="black" points="201,-98.5 201,-128.5 354,-128.5 354,-98.5 201,-98.5"/>
<text text-anchor="start" x="209" y="-116.5" font-family="Helvetica,sans-Serif" font-size="10.00">Lvl3Mage.EditorEnhancements.</text>
<text text-anchor="middle" x="277.5" y="-105.5" font-family="Helvetica,sans-Serif" font-size="10.00">Runtime.ActionButton</text>
</a>
</g>
</g>
<!-- Node2&#45;&gt;Node3 -->
<g id="edge4" class="edge">
<title>Node2&#45;&gt;Node3</title>
<path fill="none" stroke="midnightblue" d="M126.29,-150.49C153.18,-143.86 186.81,-135.58 215.43,-128.54"/>
<polygon fill="midnightblue" stroke="midnightblue" points="125.21,-147.15 116.34,-152.94 126.89,-153.94 125.21,-147.15"/>
</g>
<!-- Node6 -->
<g id="node10" class="node">
<title>Node6</title>
<g id="a_node10"><a xlink:href="a00103.html" target="_top" xlink:title=" ">
<polygon fill="white" stroke="black" points="201,-49.5 201,-79.5 354,-79.5 354,-49.5 201,-49.5"/>
<text text-anchor="start" x="209" y="-67.5" font-family="Helvetica,sans-Serif" font-size="10.00">Lvl3Mage.EditorEnhancements.</text>
<text text-anchor="middle" x="277.5" y="-56.5" font-family="Helvetica,sans-Serif" font-size="10.00">Runtime.DropdownField</text>
</a>
</g>
</g>
<!-- Node2&#45;&gt;Node6 -->
<g id="edge7" class="edge">
<title>Node2&#45;&gt;Node6</title>
<path fill="none" stroke="midnightblue" d="M97.12,-146.65C118.54,-130.04 154.43,-104.22 189,-88.5 196.31,-85.17 204.18,-82.22 212.1,-79.62"/>
<polygon fill="midnightblue" stroke="midnightblue" points="94.82,-144 89.13,-152.94 99.15,-149.5 94.82,-144"/>
</g>
<!-- Node7 -->
<g id="node11" class="node">
<title>Node7</title>
<g id="a_node11"><a xlink:href="a00111.html" target="_top" xlink:title=" ">
<polygon fill="white" stroke="black" points="201,-0.5 201,-30.5 354,-30.5 354,-0.5 201,-0.5"/>
<text text-anchor="start" x="209" y="-18.5" font-family="Helvetica,sans-Serif" font-size="10.00">Lvl3Mage.EditorEnhancements.</text>
<text text-anchor="middle" x="277.5" y="-7.5" font-family="Helvetica,sans-Serif" font-size="10.00">Runtime.EnumSelectableField</text>
</a>
</g>
</g>
<!-- Node2&#45;&gt;Node7 -->
<g id="edge8" class="edge">
<title>Node2&#45;&gt;Node7</title>
<path fill="none" stroke="midnightblue" d="M88.98,-144.31C106.98,-117.32 144.41,-66.9 189,-39.5 194.64,-36.04 200.78,-33.06 207.11,-30.51"/>
<polygon fill="midnightblue" stroke="midnightblue" points="85.97,-142.52 83.45,-152.81 91.84,-146.34 85.97,-142.52"/>
</g>
<!-- Node11 -->
<g id="node12" class="node">
<title>Node11</title>
<g id="a_node12"><a xlink:href="a00139.html" target="_top" xlink:title=" ">
<polygon fill="white" stroke="black" points="201,-147.5 201,-177.5 354,-177.5 354,-147.5 201,-147.5"/>
<text text-anchor="start" x="209" y="-165.5" font-family="Helvetica,sans-Serif" font-size="10.00">Lvl3Mage.EditorEnhancements.</text>
<text text-anchor="middle" x="277.5" y="-154.5" font-family="Helvetica,sans-Serif" font-size="10.00">Runtime.Texture2DPreview</text>
</a>
</g>
</g>
<!-- Node2&#45;&gt;Node11 -->
<g id="edge12" class="edge">
<title>Node2&#45;&gt;Node11</title>
<path fill="none" stroke="midnightblue" d="M131.35,-162.5C152.73,-162.5 177.7,-162.5 200.84,-162.5"/>
<polygon fill="midnightblue" stroke="midnightblue" points="131.17,-159 121.17,-162.5 131.17,-166 131.17,-159"/>
</g>
<!-- Node4 -->
<g id="node8" class="node">
<title>Node4</title>
<g id="a_node8"><a xlink:href="a00095.html" target="_top" xlink:title=" ">
<polygon fill="white" stroke="black" points="402,-122.5 402,-152.5 555,-152.5 555,-122.5 402,-122.5"/>
<text text-anchor="start" x="410" y="-140.5" font-family="Helvetica,sans-Serif" font-size="10.00">Lvl3Mage.EditorEnhancements.</text>
<text text-anchor="middle" x="478.5" y="-129.5" font-family="Helvetica,sans-Serif" font-size="10.00">Runtime.FieldActionButton</text>
</a>
</g>
</g>
<!-- Node3&#45;&gt;Node4 -->
<g id="edge5" class="edge">
<title>Node3&#45;&gt;Node4</title>
<path fill="none" stroke="midnightblue" d="M363.99,-123.81C376.53,-125.32 389.38,-126.87 401.7,-128.36"/>
<polygon fill="midnightblue" stroke="midnightblue" points="364.36,-120.33 354.02,-122.61 363.53,-127.28 364.36,-120.33"/>
</g>
<!-- Node5 -->
<g id="node9" class="node">
<title>Node5</title>
<g id="a_node9"><a xlink:href="a00099.html" target="_top" xlink:title=" ">
<polygon fill="white" stroke="black" points="402,-73.5 402,-103.5 555,-103.5 555,-73.5 402,-73.5"/>
<text text-anchor="start" x="410" y="-91.5" font-family="Helvetica,sans-Serif" font-size="10.00">Lvl3Mage.EditorEnhancements.</text>
<text text-anchor="middle" x="478.5" y="-80.5" font-family="Helvetica,sans-Serif" font-size="10.00">Runtime.ParentActionButton</text>
</a>
</g>
</g>
<!-- Node3&#45;&gt;Node5 -->
<g id="edge6" class="edge">
<title>Node3&#45;&gt;Node5</title>
<path fill="none" stroke="midnightblue" d="M363.99,-102.76C376.53,-101.18 389.38,-99.57 401.7,-98.02"/>
<polygon fill="midnightblue" stroke="midnightblue" points="363.5,-99.29 354.02,-104.01 364.38,-106.24 363.5,-99.29"/>
</g>
</g>
</svg>
