<?xml version="1.0" encoding="UTF-8" standalone="no"?>
<!DOCTYPE svg PUBLIC "-//W3C//DTD SVG 1.1//EN"
 "http://www.w3.org/Graphics/SVG/1.1/DTD/svg11.dtd">
<!-- Generated by graphviz version 3.0.0 (20221109.1736)
 -->
<!-- Title: Graphical Class Hierarchy Pages: 1 -->
<svg width="293pt" height="137pt"
 viewBox="0.00 0.00 293.00 137.00" xmlns="http://www.w3.org/2000/svg" xmlns:xlink="http://www.w3.org/1999/xlink">
<g id="graph0" class="graph" transform="scale(1 1) rotate(0) translate(4 133)">
<title>Graphical Class Hierarchy</title>
<polygon fill="white" stroke="transparent" points="-4,4 -4,-133 289,-133 289,4 -4,4"/>
<!-- Node0 -->
<g id="node1" class="node">
<title>Node0</title>
<g id="a_node1"><a xlink:title=" ">
<polygon fill="white" stroke="#bfbfbf" points="0,-55 0,-74 83,-74 83,-55 0,-55"/>
<text text-anchor="middle" x="41.5" y="-62" font-family="Helvetica,sans-Serif" font-size="10.00">PropertyDrawer</text>
</a>
</g>
</g>
<!-- Node1 -->
<g id="node2" class="node">
<title>Node1</title>
<g id="a_node2"><a xlink:href="a00037.html" target="_top" xlink:title=" ">
<polygon fill="white" stroke="black" points="125.5,-98.5 125.5,-128.5 278.5,-128.5 278.5,-98.5 125.5,-98.5"/>
<text text-anchor="start" x="133.5" y="-116.5" font-family="Helvetica,sans-Serif" font-size="10.00">Lvl3Mage.EditorEnhancements.</text>
<text text-anchor="middle" x="202" y="-105.5" font-family="Helvetica,sans-Serif" font-size="10.00">Editor.ActionButtonDrawer</text>
</a>
</g>
</g>
<!-- Node0&#45;&gt;Node1 -->
<g id="edge1" class="edge">
<title>Node0&#45;&gt;Node1</title>
<path fill="none" stroke="midnightblue" d="M80.96,-77.33C93.11,-81.31 106.59,-85.66 119,-89.5 128.49,-92.44 138.63,-95.48 148.43,-98.38"/>
<polygon fill="midnightblue" stroke="midnightblue" points="81.72,-73.89 71.13,-74.09 79.53,-80.54 81.72,-73.89"/>
</g>
<!-- Node2 -->
<g id="node3" class="node">
<title>Node2</title>
<g id="a_node3"><a xlink:href="a00041.html" target="_top" xlink:title=" ">
<polygon fill="white" stroke="black" points="119,-49.5 119,-79.5 285,-79.5 285,-49.5 119,-49.5"/>
<text text-anchor="start" x="127" y="-67.5" font-family="Helvetica,sans-Serif" font-size="10.00">Lvl3Mage.EditorEnhancements.</text>
<text text-anchor="middle" x="202" y="-56.5" font-family="Helvetica,sans-Serif" font-size="10.00">Editor.EnumSelectableFieldDrawer</text>
</a>
</g>
</g>
<!-- Node0&#45;&gt;Node2 -->
<g id="edge2" class="edge">
<title>Node0&#45;&gt;Node2</title>
<path fill="none" stroke="midnightblue" d="M93.35,-64.5C101.48,-64.5 110.08,-64.5 118.73,-64.5"/>
<polygon fill="midnightblue" stroke="midnightblue" points="93.32,-61 83.32,-64.5 93.32,-68 93.32,-61"/>
</g>
<!-- Node3 -->
<g id="node4" class="node">
<title>Node3</title>
<g id="a_node4"><a xlink:href="a00045.html" target="_top" xlink:title=" ">
<polygon fill="white" stroke="black" points="125,-0.5 125,-30.5 279,-30.5 279,-0.5 125,-0.5"/>
<text text-anchor="start" x="133" y="-18.5" font-family="Helvetica,sans-Serif" font-size="10.00">Lvl3Mage.EditorEnhancements.</text>
<text text-anchor="middle" x="202" y="-7.5" font-family="Helvetica,sans-Serif" font-size="10.00">Editor.Texture2DPreviewDrawer</text>
</a>
</g>
</g>
<!-- Node0&#45;&gt;Node3 -->
<g id="edge3" class="edge">
<title>Node0&#45;&gt;Node3</title>
<path fill="none" stroke="midnightblue" d="M82.25,-51.96C94.07,-48.25 107.05,-44.2 119,-40.5 129.52,-37.25 140.81,-33.78 151.55,-30.51"/>
<polygon fill="midnightblue" stroke="midnightblue" points="81.13,-48.65 72.64,-54.98 83.23,-55.32 81.13,-48.65"/>
</g>
</g>
</svg>
