<?xml version="1.0" encoding="UTF-8" standalone="no"?>
<!DOCTYPE svg PUBLIC "-//W3C//DTD SVG 1.1//EN"
 "http://www.w3.org/Graphics/SVG/1.1/DTD/svg11.dtd">
<!-- Generated by graphviz version 3.0.0 (20221109.1736)
 -->
<!-- Title: Graphical Class Hierarchy Pages: 1 -->
<svg width="293pt" height="186pt"
 viewBox="0.00 0.00 293.00 186.00" xmlns="http://www.w3.org/2000/svg" xmlns:xlink="http://www.w3.org/1999/xlink">
<g id="graph0" class="graph" transform="scale(1 1) rotate(0) translate(4 182)">
<title>Graphical Class Hierarchy</title>
<polygon fill="white" stroke="transparent" points="-4,4 -4,-182 289,-182 289,4 -4,4"/>
<!-- Node0 -->
<g id="node1" class="node">
<title>Node0</title>
<g id="a_node1"><a xlink:title=" ">
<polygon fill="white" stroke="#bfbfbf" points="0,-79 0,-98 83,-98 83,-79 0,-79"/>
<text text-anchor="middle" x="41.5" y="-86" font-family="Helvetica,sans-Serif" font-size="10.00">PropertyDrawer</text>
</a>
</g>
</g>
<!-- Node1 -->
<g id="node2" class="node">
<title>Node1</title>
<g id="a_node2"><a xlink:href="a00050.html" target="_top" xlink:title=" ">
<polygon fill="white" stroke="black" points="125.5,-147.5 125.5,-177.5 278.5,-177.5 278.5,-147.5 125.5,-147.5"/>
<text text-anchor="start" x="133.5" y="-165.5" font-family="Helvetica,sans-Serif" font-size="10.00">Lvl3Mage.EditorEnhancements.</text>
<text text-anchor="middle" x="202" y="-154.5" font-family="Helvetica,sans-Serif" font-size="10.00">Editor.ActionButtonDrawer</text>
</a>
</g>
</g>
<!-- Node0&#45;&gt;Node1 -->
<g id="edge1" class="edge">
<title>Node0&#45;&gt;Node1</title>
<path fill="none" stroke="midnightblue" d="M62.98,-104.28C77.85,-115.13 98.83,-129.21 119,-138.5 126.14,-141.79 133.84,-144.75 141.56,-147.37"/>
<polygon fill="midnightblue" stroke="midnightblue" points="64.67,-101.18 54.56,-98.01 60.49,-106.79 64.67,-101.18"/>
</g>
<!-- Node2 -->
<g id="node3" class="node">
<title>Node2</title>
<g id="a_node3"><a xlink:href="a00054.html" target="_top" xlink:title=" ">
<polygon fill="white" stroke="black" points="119,-98.5 119,-128.5 285,-128.5 285,-98.5 119,-98.5"/>
<text text-anchor="start" x="127" y="-116.5" font-family="Helvetica,sans-Serif" font-size="10.00">Lvl3Mage.EditorEnhancements.</text>
<text text-anchor="middle" x="202" y="-105.5" font-family="Helvetica,sans-Serif" font-size="10.00">Editor.EnumSelectableFieldDrawer</text>
</a>
</g>
</g>
<!-- Node0&#45;&gt;Node2 -->
<g id="edge2" class="edge">
<title>Node0&#45;&gt;Node2</title>
<path fill="none" stroke="midnightblue" d="M93.35,-96.52C101.48,-97.8 110.08,-99.16 118.73,-100.52"/>
<polygon fill="midnightblue" stroke="midnightblue" points="93.74,-93.04 83.32,-94.94 92.65,-99.95 93.74,-93.04"/>
</g>
<!-- Node3 -->
<g id="node4" class="node">
<title>Node3</title>
<g id="a_node4"><a xlink:href="a00058.html" target="_top" xlink:title=" ">
<polygon fill="white" stroke="black" points="125.5,-49.5 125.5,-79.5 278.5,-79.5 278.5,-49.5 125.5,-49.5"/>
<text text-anchor="start" x="133.5" y="-67.5" font-family="Helvetica,sans-Serif" font-size="10.00">Lvl3Mage.EditorEnhancements.</text>
<text text-anchor="middle" x="202" y="-56.5" font-family="Helvetica,sans-Serif" font-size="10.00">Editor.LabeledFieldDrawer</text>
</a>
</g>
</g>
<!-- Node0&#45;&gt;Node3 -->
<g id="edge3" class="edge">
<title>Node0&#45;&gt;Node3</title>
<path fill="none" stroke="midnightblue" d="M93.25,-80.82C103.46,-79.27 114.39,-77.61 125.24,-75.97"/>
<polygon fill="midnightblue" stroke="midnightblue" points="92.68,-77.36 83.32,-82.32 93.73,-84.28 92.68,-77.36"/>
</g>
<!-- Node4 -->
<g id="node5" class="node">
<title>Node4</title>
<g id="a_node5"><a xlink:href="a00062.html" target="_top" xlink:title=" ">
<polygon fill="white" stroke="black" points="125,-0.5 125,-30.5 279,-30.5 279,-0.5 125,-0.5"/>
<text text-anchor="start" x="133" y="-18.5" font-family="Helvetica,sans-Serif" font-size="10.00">Lvl3Mage.EditorEnhancements.</text>
<text text-anchor="middle" x="202" y="-7.5" font-family="Helvetica,sans-Serif" font-size="10.00">Editor.Texture2DPreviewDrawer</text>
</a>
</g>
</g>
<!-- Node0&#45;&gt;Node4 -->
<g id="edge4" class="edge">
<title>Node0&#45;&gt;Node4</title>
<path fill="none" stroke="midnightblue" d="M63.9,-72.91C78.78,-62.63 99.39,-49.45 119,-40.5 127.12,-36.79 135.94,-33.45 144.69,-30.5"/>
<polygon fill="midnightblue" stroke="midnightblue" points="61.59,-70.26 55.44,-78.88 65.63,-75.98 61.59,-70.26"/>
</g>
</g>
</svg>
