<?xml version="1.0" encoding="UTF-8" standalone="no"?>
<!DOCTYPE svg PUBLIC "-//W3C//DTD SVG 1.1//EN"
 "http://www.w3.org/Graphics/SVG/1.1/DTD/svg11.dtd">
<!-- Generated by graphviz version 3.0.0 (20221109.1736)
 -->
<!-- Title: Graphical Class Hierarchy Pages: 1 -->
<svg width="286pt" height="137pt"
 viewBox="0.00 0.00 286.00 137.00" xmlns="http://www.w3.org/2000/svg" xmlns:xlink="http://www.w3.org/1999/xlink">
<g id="graph0" class="graph" transform="scale(1 1) rotate(0) translate(4 133)">
<title>Graphical Class Hierarchy</title>
<polygon fill="white" stroke="transparent" points="-4,4 -4,-133 282,-133 282,4 -4,4"/>
<!-- Node0 -->
<g id="node1" class="node">
<title>Node0</title>
<g id="a_node1"><a xlink:title=" ">
<polygon fill="white" stroke="#bfbfbf" points="0,-55 0,-74 89,-74 89,-55 0,-55"/>
<text text-anchor="middle" x="44.5" y="-62" font-family="Helvetica,sans-Serif" font-size="10.00">PropertyAttribute</text>
</a>
</g>
</g>
<!-- Node1 -->
<g id="node2" class="node">
<title>Node1</title>
<g id="a_node2"><a xlink:href="a00057.html" target="_top" xlink:title=" ">
<polygon fill="white" stroke="black" points="125,-98.5 125,-128.5 278,-128.5 278,-98.5 125,-98.5"/>
<text text-anchor="start" x="133" y="-116.5" font-family="Helvetica,sans-Serif" font-size="10.00">Lvl3Mage.EditorEnhancements.</text>
<text text-anchor="middle" x="201.5" y="-105.5" font-family="Helvetica,sans-Serif" font-size="10.00">Runtime.ActionButton</text>
</a>
</g>
</g>
<!-- Node0&#45;&gt;Node1 -->
<g id="edge1" class="edge">
<title>Node0&#45;&gt;Node1</title>
<path fill="none" stroke="midnightblue" d="M85.46,-77.13C106.06,-83.64 131.33,-91.63 152.93,-98.46"/>
<polygon fill="midnightblue" stroke="midnightblue" points="86.34,-73.74 75.75,-74.06 84.23,-80.42 86.34,-73.74"/>
</g>
<!-- Node2 -->
<g id="node3" class="node">
<title>Node2</title>
<g id="a_node3"><a xlink:href="a00049.html" target="_top" xlink:title=" ">
<polygon fill="white" stroke="black" points="125,-49.5 125,-79.5 278,-79.5 278,-49.5 125,-49.5"/>
<text text-anchor="start" x="133" y="-67.5" font-family="Helvetica,sans-Serif" font-size="10.00">Lvl3Mage.EditorEnhancements.</text>
<text text-anchor="middle" x="201.5" y="-56.5" font-family="Helvetica,sans-Serif" font-size="10.00">Runtime.EnumSelectableField</text>
</a>
</g>
</g>
<!-- Node0&#45;&gt;Node2 -->
<g id="edge2" class="edge">
<title>Node0&#45;&gt;Node2</title>
<path fill="none" stroke="midnightblue" d="M99.34,-64.5C107.62,-64.5 116.3,-64.5 124.95,-64.5"/>
<polygon fill="midnightblue" stroke="midnightblue" points="99.09,-61 89.09,-64.5 99.09,-68 99.09,-61"/>
</g>
<!-- Node3 -->
<g id="node4" class="node">
<title>Node3</title>
<g id="a_node4"><a xlink:href="a00053.html" target="_top" xlink:title=" ">
<polygon fill="white" stroke="black" points="125,-0.5 125,-30.5 278,-30.5 278,-0.5 125,-0.5"/>
<text text-anchor="start" x="133" y="-18.5" font-family="Helvetica,sans-Serif" font-size="10.00">Lvl3Mage.EditorEnhancements.</text>
<text text-anchor="middle" x="201.5" y="-7.5" font-family="Helvetica,sans-Serif" font-size="10.00">Runtime.Texture2DPreview</text>
</a>
</g>
</g>
<!-- Node0&#45;&gt;Node3 -->
<g id="edge3" class="edge">
<title>Node0&#45;&gt;Node3</title>
<path fill="none" stroke="midnightblue" d="M85.46,-51.87C106.06,-45.36 131.33,-37.37 152.93,-30.54"/>
<polygon fill="midnightblue" stroke="midnightblue" points="84.23,-48.58 75.75,-54.94 86.34,-55.26 84.23,-48.58"/>
</g>
</g>
</svg>
