<?xml version="1.0" encoding="UTF-8" standalone="no"?>
<!DOCTYPE svg PUBLIC "-//W3C//DTD SVG 1.1//EN"
 "http://www.w3.org/Graphics/SVG/1.1/DTD/svg11.dtd">
<!-- Generated by graphviz version 3.0.0 (20221109.1736)
 -->
<!-- Title: Graphical Class Hierarchy Pages: 1 -->
<svg width="575pt" height="406pt"
 viewBox="0.00 0.00 575.00 406.00" xmlns="http://www.w3.org/2000/svg" xmlns:xlink="http://www.w3.org/1999/xlink">
<g id="graph0" class="graph" transform="scale(1 1) rotate(0) translate(4 402)">
<title>Graphical Class Hierarchy</title>
<polygon fill="white" stroke="transparent" points="-4,4 -4,-402 571,-402 571,4 -4,4"/>
<!-- Node0 -->
<g id="node1" class="node">
<title>Node0</title>
<g id="a_node1"><a xlink:href="a00137.html" target="_top" xlink:title=" ">
<polygon fill="white" stroke="black" points="0,-367.5 0,-397.5 153,-397.5 153,-367.5 0,-367.5"/>
<text text-anchor="start" x="8" y="-385.5" font-family="Helvetica,sans-Serif" font-size="10.00">Lvl3Mage.EditorEnhancements.</text>
<text text-anchor="middle" x="76.5" y="-374.5" font-family="Helvetica,sans-Serif" font-size="10.00">Runtime.IMessageBoxDisplay</text>
</a>
</g>
</g>
<!-- Node1 -->
<g id="node2" class="node">
<title>Node1</title>
<g id="a_node2"><a xlink:href="a00145.html" target="_top" xlink:title="An attribute that can be used to display message boxes in the inspector.">
<polygon fill="white" stroke="black" points="201,-367.5 201,-397.5 354,-397.5 354,-367.5 201,-367.5"/>
<text text-anchor="start" x="209" y="-385.5" font-family="Helvetica,sans-Serif" font-size="10.00">Lvl3Mage.EditorEnhancements.</text>
<text text-anchor="middle" x="277.5" y="-374.5" font-family="Helvetica,sans-Serif" font-size="10.00">Runtime.MessageBoxDisplay</text>
</a>
</g>
</g>
<!-- Node0&#45;&gt;Node1 -->
<g id="edge1" class="edge">
<title>Node0&#45;&gt;Node1</title>
<path fill="none" stroke="midnightblue" d="M163.37,-382.5C175.79,-382.5 188.5,-382.5 200.7,-382.5"/>
<polygon fill="midnightblue" stroke="midnightblue" points="163.02,-379 153.02,-382.5 163.02,-386 163.02,-379"/>
</g>
<!-- Node9 -->
<g id="node3" class="node">
<title>Node9</title>
<g id="a_node3"><a xlink:href="a00125.html" target="_top" xlink:title="An interface that defines a labeled field.">
<polygon fill="white" stroke="black" points="0,-293.5 0,-323.5 153,-323.5 153,-293.5 0,-293.5"/>
<text text-anchor="start" x="8" y="-311.5" font-family="Helvetica,sans-Serif" font-size="10.00">Lvl3Mage.EditorEnhancements.</text>
<text text-anchor="middle" x="76.5" y="-300.5" font-family="Helvetica,sans-Serif" font-size="10.00">Runtime.ISourceLabeledField</text>
</a>
</g>
</g>
<!-- Node8 -->
<g id="node4" class="node">
<title>Node8</title>
<g id="a_node4"><a xlink:href="a00133.html" target="_top" xlink:title=" ">
<polygon fill="white" stroke="black" points="191,-318.5 191,-348.5 364,-348.5 364,-318.5 191,-318.5"/>
<text text-anchor="start" x="199" y="-336.5" font-family="Helvetica,sans-Serif" font-size="10.00">Lvl3Mage.EditorEnhancements.</text>
<text text-anchor="middle" x="277.5" y="-325.5" font-family="Helvetica,sans-Serif" font-size="10.00">Runtime.MethodSourceLabeledField</text>
</a>
</g>
</g>
<!-- Node9&#45;&gt;Node8 -->
<g id="edge2" class="edge">
<title>Node9&#45;&gt;Node8</title>
<path fill="none" stroke="midnightblue" d="M163.22,-319.27C172.33,-320.41 181.6,-321.58 190.71,-322.72"/>
<polygon fill="midnightblue" stroke="midnightblue" points="163.38,-315.76 153.02,-317.99 162.5,-322.71 163.38,-315.76"/>
</g>
<!-- Node10 -->
<g id="node5" class="node">
<title>Node10</title>
<g id="a_node5"><a xlink:href="a00129.html" target="_top" xlink:title=" ">
<polygon fill="white" stroke="black" points="189,-269.5 189,-299.5 366,-299.5 366,-269.5 189,-269.5"/>
<text text-anchor="start" x="197" y="-287.5" font-family="Helvetica,sans-Serif" font-size="10.00">Lvl3Mage.EditorEnhancements.</text>
<text text-anchor="middle" x="277.5" y="-276.5" font-family="Helvetica,sans-Serif" font-size="10.00">Runtime.PropertySourceLabeledField</text>
</a>
</g>
</g>
<!-- Node9&#45;&gt;Node10 -->
<g id="edge3" class="edge">
<title>Node9&#45;&gt;Node10</title>
<path fill="none" stroke="midnightblue" d="M162.95,-298.19C171.47,-297.17 180.14,-296.12 188.69,-295.09"/>
<polygon fill="midnightblue" stroke="midnightblue" points="162.53,-294.72 153.02,-299.39 163.36,-301.67 162.53,-294.72"/>
</g>
<!-- Node2 -->
<g id="node6" class="node">
<title>Node2</title>
<g id="a_node6"><a xlink:title=" ">
<polygon fill="white" stroke="#bfbfbf" points="32,-202 32,-221 121,-221 121,-202 32,-202"/>
<text text-anchor="middle" x="76.5" y="-209" font-family="Helvetica,sans-Serif" font-size="10.00">PropertyAttribute</text>
</a>
</g>
</g>
<!-- Node2&#45;&gt;Node1 -->
<g id="edge9" class="edge">
<title>Node2&#45;&gt;Node1</title>
<path fill="none" stroke="midnightblue" d="M97.68,-227.57C114.08,-241.38 137.05,-262.51 153,-284.5 174.47,-314.11 160.86,-335.14 189,-358.5 193.12,-361.92 197.69,-364.86 202.52,-367.38"/>
<polygon fill="midnightblue" stroke="midnightblue" points="99.71,-224.7 89.77,-221.04 95.25,-230.11 99.71,-224.7"/>
</g>
<!-- Node2&#45;&gt;Node8 -->
<g id="edge10" class="edge">
<title>Node2&#45;&gt;Node8</title>
<path fill="none" stroke="midnightblue" d="M94.44,-228.11C120.15,-253.01 168.24,-298.31 189,-309.5 195.38,-312.94 202.29,-315.92 209.34,-318.49"/>
<polygon fill="midnightblue" stroke="midnightblue" points="96.84,-225.56 87.23,-221.09 91.96,-230.58 96.84,-225.56"/>
</g>
<!-- Node2&#45;&gt;Node10 -->
<g id="edge11" class="edge">
<title>Node2&#45;&gt;Node10</title>
<path fill="none" stroke="midnightblue" d="M106.1,-225.45C128.35,-235.97 160.18,-250.28 189,-260.5 197.91,-263.66 207.45,-266.66 216.83,-269.39"/>
<polygon fill="midnightblue" stroke="midnightblue" points="107.42,-222.21 96.89,-221.06 104.4,-228.53 107.42,-222.21"/>
</g>
<!-- Node3 -->
<g id="node7" class="node">
<title>Node3</title>
<g id="a_node7"><a xlink:href="a00101.html" target="_top" xlink:title="An attribute that adds a button to the inspector. The button will call a method on the target object ...">
<polygon fill="white" stroke="black" points="201,-24.5 201,-54.5 354,-54.5 354,-24.5 201,-24.5"/>
<text text-anchor="start" x="209" y="-42.5" font-family="Helvetica,sans-Serif" font-size="10.00">Lvl3Mage.EditorEnhancements.</text>
<text text-anchor="middle" x="277.5" y="-31.5" font-family="Helvetica,sans-Serif" font-size="10.00">Runtime.ActionButton</text>
</a>
</g>
</g>
<!-- Node2&#45;&gt;Node3 -->
<g id="edge4" class="edge">
<title>Node2&#45;&gt;Node3</title>
<path fill="none" stroke="midnightblue" d="M86.48,-192.94C102.59,-161.63 139.38,-98.45 189,-64.5 194.61,-60.66 200.8,-57.41 207.22,-54.65"/>
<polygon fill="midnightblue" stroke="midnightblue" points="83.34,-191.39 81.99,-201.9 89.6,-194.53 83.34,-191.39"/>
</g>
<!-- Node6 -->
<g id="node10" class="node">
<title>Node6</title>
<g id="a_node10"><a xlink:href="a00113.html" target="_top" xlink:title="An attribute that adds a dropdown field to the inspector. Replaces the standard string field with a d...">
<polygon fill="white" stroke="black" points="201,-220.5 201,-250.5 354,-250.5 354,-220.5 201,-220.5"/>
<text text-anchor="start" x="209" y="-238.5" font-family="Helvetica,sans-Serif" font-size="10.00">Lvl3Mage.EditorEnhancements.</text>
<text text-anchor="middle" x="277.5" y="-227.5" font-family="Helvetica,sans-Serif" font-size="10.00">Runtime.DropdownField</text>
</a>
</g>
</g>
<!-- Node2&#45;&gt;Node6 -->
<g id="edge7" class="edge">
<title>Node2&#45;&gt;Node6</title>
<path fill="none" stroke="midnightblue" d="M131.35,-217.99C152.73,-220.57 177.7,-223.58 200.84,-226.37"/>
<polygon fill="midnightblue" stroke="midnightblue" points="131.52,-214.49 121.17,-216.77 130.68,-221.44 131.52,-214.49"/>
</g>
<!-- Node7 -->
<g id="node11" class="node">
<title>Node7</title>
<g id="a_node11"><a xlink:href="a00121.html" target="_top" xlink:title=" ">
<polygon fill="white" stroke="black" points="201,-171.5 201,-201.5 354,-201.5 354,-171.5 201,-171.5"/>
<text text-anchor="start" x="209" y="-189.5" font-family="Helvetica,sans-Serif" font-size="10.00">Lvl3Mage.EditorEnhancements.</text>
<text text-anchor="middle" x="277.5" y="-178.5" font-family="Helvetica,sans-Serif" font-size="10.00">Runtime.EnumSelectableField</text>
</a>
</g>
</g>
<!-- Node2&#45;&gt;Node7 -->
<g id="edge8" class="edge">
<title>Node2&#45;&gt;Node7</title>
<path fill="none" stroke="midnightblue" d="M131.35,-204.73C152.73,-202.05 177.7,-198.91 200.84,-196.01"/>
<polygon fill="midnightblue" stroke="midnightblue" points="130.66,-201.29 121.17,-206.01 131.53,-208.24 130.66,-201.29"/>
</g>
<!-- Node11 -->
<g id="node12" class="node">
<title>Node11</title>
<g id="a_node12"><a xlink:href="a00149.html" target="_top" xlink:title=" ">
<polygon fill="white" stroke="black" points="201,-122.5 201,-152.5 354,-152.5 354,-122.5 201,-122.5"/>
<text text-anchor="start" x="209" y="-140.5" font-family="Helvetica,sans-Serif" font-size="10.00">Lvl3Mage.EditorEnhancements.</text>
<text text-anchor="middle" x="277.5" y="-129.5" font-family="Helvetica,sans-Serif" font-size="10.00">Runtime.SubclassSelector</text>
</a>
</g>
</g>
<!-- Node2&#45;&gt;Node11 -->
<g id="edge12" class="edge">
<title>Node2&#45;&gt;Node11</title>
<path fill="none" stroke="midnightblue" d="M106.53,-197.44C128.78,-186.99 160.41,-172.81 189,-162.5 198.81,-158.96 209.38,-155.59 219.66,-152.53"/>
<polygon fill="midnightblue" stroke="midnightblue" points="104.85,-194.37 97.31,-201.81 107.85,-200.69 104.85,-194.37"/>
</g>
<!-- Node13 -->
<g id="node14" class="node">
<title>Node13</title>
<g id="a_node14"><a xlink:href="a00157.html" target="_top" xlink:title=" ">
<polygon fill="white" stroke="black" points="201,-73.5 201,-103.5 354,-103.5 354,-73.5 201,-73.5"/>
<text text-anchor="start" x="209" y="-91.5" font-family="Helvetica,sans-Serif" font-size="10.00">Lvl3Mage.EditorEnhancements.</text>
<text text-anchor="middle" x="277.5" y="-80.5" font-family="Helvetica,sans-Serif" font-size="10.00">Runtime.Texture2DPreview</text>
</a>
</g>
</g>
<!-- Node2&#45;&gt;Node13 -->
<g id="edge14" class="edge">
<title>Node2&#45;&gt;Node13</title>
<path fill="none" stroke="midnightblue" d="M92.45,-194.31C112.36,-172.45 149.69,-134.96 189,-113.5 195.93,-109.72 203.5,-106.45 211.18,-103.66"/>
<polygon fill="midnightblue" stroke="midnightblue" points="89.75,-192.07 85.7,-201.86 94.97,-196.74 89.75,-192.07"/>
</g>
<!-- Node4 -->
<g id="node8" class="node">
<title>Node4</title>
<g id="a_node8"><a xlink:href="a00105.html" target="_top" xlink:title=" ">
<polygon fill="white" stroke="black" points="408,-0.5 408,-30.5 561,-30.5 561,-0.5 408,-0.5"/>
<text text-anchor="start" x="416" y="-18.5" font-family="Helvetica,sans-Serif" font-size="10.00">Lvl3Mage.EditorEnhancements.</text>
<text text-anchor="middle" x="484.5" y="-7.5" font-family="Helvetica,sans-Serif" font-size="10.00">Runtime.FieldActionButton</text>
</a>
</g>
</g>
<!-- Node3&#45;&gt;Node4 -->
<g id="edge5" class="edge">
<title>Node3&#45;&gt;Node4</title>
<path fill="none" stroke="midnightblue" d="M364.59,-29.42C378.91,-27.74 393.67,-26.02 407.72,-24.37"/>
<polygon fill="midnightblue" stroke="midnightblue" points="363.78,-25.99 354.25,-30.63 364.59,-32.94 363.78,-25.99"/>
</g>
<!-- Node5 -->
<g id="node9" class="node">
<title>Node5</title>
<g id="a_node9"><a xlink:href="a00109.html" target="_top" xlink:title=" ">
<polygon fill="white" stroke="black" points="408,-49.5 408,-79.5 561,-79.5 561,-49.5 408,-49.5"/>
<text text-anchor="start" x="416" y="-67.5" font-family="Helvetica,sans-Serif" font-size="10.00">Lvl3Mage.EditorEnhancements.</text>
<text text-anchor="middle" x="484.5" y="-56.5" font-family="Helvetica,sans-Serif" font-size="10.00">Runtime.ParentActionButton</text>
</a>
</g>
</g>
<!-- Node3&#45;&gt;Node5 -->
<g id="edge6" class="edge">
<title>Node3&#45;&gt;Node5</title>
<path fill="none" stroke="midnightblue" d="M364.59,-50C378.91,-51.75 393.67,-53.55 407.72,-55.26"/>
<polygon fill="midnightblue" stroke="midnightblue" points="364.6,-46.47 354.25,-48.74 363.75,-53.42 364.6,-46.47"/>
</g>
<!-- Node12 -->
<g id="node13" class="node">
<title>Node12</title>
<g id="a_node13"><a xlink:href="a00153.html" target="_top" xlink:title=" ">
<polygon fill="white" stroke="black" points="402,-122.5 402,-152.5 567,-152.5 567,-122.5 402,-122.5"/>
<text text-anchor="start" x="410" y="-140.5" font-family="Helvetica,sans-Serif" font-size="10.00">Lvl3Mage.EditorEnhancements.</text>
<text text-anchor="middle" x="484.5" y="-129.5" font-family="Helvetica,sans-Serif" font-size="10.00">Runtime.CustomSubclassSelector</text>
</a>
</g>
</g>
<!-- Node11&#45;&gt;Node12 -->
<g id="edge13" class="edge">
<title>Node11&#45;&gt;Node12</title>
<path fill="none" stroke="midnightblue" d="M364.54,-137.5C376.9,-137.5 389.59,-137.5 401.86,-137.5"/>
<polygon fill="midnightblue" stroke="midnightblue" points="364.25,-134 354.25,-137.5 364.25,-141 364.25,-134"/>
</g>
</g>
</svg>
