<?xml version="1.0" encoding="UTF-8" standalone="no"?>
<!DOCTYPE svg PUBLIC "-//W3C//DTD SVG 1.1//EN"
 "http://www.w3.org/Graphics/SVG/1.1/DTD/svg11.dtd">
<!-- Generated by graphviz version 3.0.0 (20221109.1736)
 -->
<!-- Title: Graphical Class Hierarchy Pages: 1 -->
<svg width="293pt" height="235pt"
 viewBox="0.00 0.00 293.00 235.00" xmlns="http://www.w3.org/2000/svg" xmlns:xlink="http://www.w3.org/1999/xlink">
<g id="graph0" class="graph" transform="scale(1 1) rotate(0) translate(4 231)">
<title>Graphical Class Hierarchy</title>
<polygon fill="white" stroke="transparent" points="-4,4 -4,-231 289,-231 289,4 -4,4"/>
<!-- Node0 -->
<g id="node1" class="node">
<title>Node0</title>
<g id="a_node1"><a xlink:title=" ">
<polygon fill="white" stroke="#bfbfbf" points="0,-104 0,-123 83,-123 83,-104 0,-104"/>
<text text-anchor="middle" x="41.5" y="-111" font-family="Helvetica,sans-Serif" font-size="10.00">PropertyDrawer</text>
</a>
</g>
</g>
<!-- Node1 -->
<g id="node2" class="node">
<title>Node1</title>
<g id="a_node2"><a xlink:href="a00061.html" target="_top" xlink:title=" ">
<polygon fill="white" stroke="black" points="125.5,-196.5 125.5,-226.5 278.5,-226.5 278.5,-196.5 125.5,-196.5"/>
<text text-anchor="start" x="133.5" y="-214.5" font-family="Helvetica,sans-Serif" font-size="10.00">Lvl3Mage.EditorEnhancements.</text>
<text text-anchor="middle" x="202" y="-203.5" font-family="Helvetica,sans-Serif" font-size="10.00">Editor.ActionButtonDrawer</text>
</a>
</g>
</g>
<!-- Node0&#45;&gt;Node1 -->
<g id="edge1" class="edge">
<title>Node0&#45;&gt;Node1</title>
<path fill="none" stroke="midnightblue" d="M56.35,-131.15C70.42,-147.95 93.7,-172.79 119,-187.5 124.9,-190.93 131.32,-193.9 137.9,-196.47"/>
<polygon fill="midnightblue" stroke="midnightblue" points="58.9,-128.74 49.87,-123.2 53.47,-133.16 58.9,-128.74"/>
</g>
<!-- Node2 -->
<g id="node3" class="node">
<title>Node2</title>
<g id="a_node3"><a xlink:href="a00065.html" target="_top" xlink:title=" ">
<polygon fill="white" stroke="black" points="119,-147.5 119,-177.5 285,-177.5 285,-147.5 119,-147.5"/>
<text text-anchor="start" x="127" y="-165.5" font-family="Helvetica,sans-Serif" font-size="10.00">Lvl3Mage.EditorEnhancements.</text>
<text text-anchor="middle" x="202" y="-154.5" font-family="Helvetica,sans-Serif" font-size="10.00">Editor.EnumSelectableFieldDrawer</text>
</a>
</g>
</g>
<!-- Node0&#45;&gt;Node2 -->
<g id="edge2" class="edge">
<title>Node0&#45;&gt;Node2</title>
<path fill="none" stroke="midnightblue" d="M80.96,-126.33C93.11,-130.31 106.59,-134.66 119,-138.5 128.49,-141.44 138.63,-144.48 148.43,-147.38"/>
<polygon fill="midnightblue" stroke="midnightblue" points="81.72,-122.89 71.13,-123.09 79.53,-129.54 81.72,-122.89"/>
</g>
<!-- Node3 -->
<g id="node4" class="node">
<title>Node3</title>
<g id="a_node4"><a xlink:href="a00069.html" target="_top" xlink:title=" ">
<polygon fill="white" stroke="black" points="125.5,-98.5 125.5,-128.5 278.5,-128.5 278.5,-98.5 125.5,-98.5"/>
<text text-anchor="start" x="133.5" y="-116.5" font-family="Helvetica,sans-Serif" font-size="10.00">Lvl3Mage.EditorEnhancements.</text>
<text text-anchor="middle" x="202" y="-105.5" font-family="Helvetica,sans-Serif" font-size="10.00">Editor.LabeledFieldDrawer</text>
</a>
</g>
</g>
<!-- Node0&#45;&gt;Node3 -->
<g id="edge3" class="edge">
<title>Node0&#45;&gt;Node3</title>
<path fill="none" stroke="midnightblue" d="M93.57,-113.5C103.69,-113.5 114.51,-113.5 125.24,-113.5"/>
<polygon fill="midnightblue" stroke="midnightblue" points="93.32,-110 83.32,-113.5 93.32,-117 93.32,-110"/>
</g>
<!-- Node4 -->
<g id="node5" class="node">
<title>Node4</title>
<g id="a_node5"><a xlink:href="a00073.html" target="_top" xlink:title=" ">
<polygon fill="white" stroke="black" points="121,-49.5 121,-79.5 283,-79.5 283,-49.5 121,-49.5"/>
<text text-anchor="start" x="129" y="-67.5" font-family="Helvetica,sans-Serif" font-size="10.00">Lvl3Mage.EditorEnhancements.</text>
<text text-anchor="middle" x="202" y="-56.5" font-family="Helvetica,sans-Serif" font-size="10.00">Editor.MessageBoxDisplayDrawer</text>
</a>
</g>
</g>
<!-- Node0&#45;&gt;Node4 -->
<g id="edge4" class="edge">
<title>Node0&#45;&gt;Node4</title>
<path fill="none" stroke="midnightblue" d="M82.25,-100.96C94.07,-97.25 107.05,-93.2 119,-89.5 129.52,-86.25 140.81,-82.78 151.55,-79.51"/>
<polygon fill="midnightblue" stroke="midnightblue" points="81.13,-97.65 72.64,-103.98 83.23,-104.32 81.13,-97.65"/>
</g>
<!-- Node5 -->
<g id="node6" class="node">
<title>Node5</title>
<g id="a_node6"><a xlink:href="a00077.html" target="_top" xlink:title=" ">
<polygon fill="white" stroke="black" points="125,-0.5 125,-30.5 279,-30.5 279,-0.5 125,-0.5"/>
<text text-anchor="start" x="133" y="-18.5" font-family="Helvetica,sans-Serif" font-size="10.00">Lvl3Mage.EditorEnhancements.</text>
<text text-anchor="middle" x="202" y="-7.5" font-family="Helvetica,sans-Serif" font-size="10.00">Editor.Texture2DPreviewDrawer</text>
</a>
</g>
</g>
<!-- Node0&#45;&gt;Node5 -->
<g id="edge5" class="edge">
<title>Node0&#45;&gt;Node5</title>
<path fill="none" stroke="midnightblue" d="M56.44,-96.15C70.57,-79.63 93.9,-55.17 119,-40.5 125.55,-36.67 132.75,-33.37 140.07,-30.55"/>
<polygon fill="midnightblue" stroke="midnightblue" points="53.63,-94.05 49.92,-103.98 59.01,-98.53 53.63,-94.05"/>
</g>
</g>
</svg>
