<?xml version="1.0" encoding="UTF-8" standalone="no"?>
<!DOCTYPE svg PUBLIC "-//W3C//DTD SVG 1.1//EN"
 "http://www.w3.org/Graphics/SVG/1.1/DTD/svg11.dtd">
<!-- Generated by graphviz version 3.0.0 (20221109.1736)
 -->
<!-- Title: Graphical Class Hierarchy Pages: 1 -->
<svg width="293pt" height="333pt"
 viewBox="0.00 0.00 293.00 333.00" xmlns="http://www.w3.org/2000/svg" xmlns:xlink="http://www.w3.org/1999/xlink">
<g id="graph0" class="graph" transform="scale(1 1) rotate(0) translate(4 329)">
<title>Graphical Class Hierarchy</title>
<polygon fill="white" stroke="transparent" points="-4,4 -4,-329 289,-329 289,4 -4,4"/>
<!-- Node0 -->
<g id="node1" class="node">
<title>Node0</title>
<g id="a_node1"><a xlink:title=" ">
<polygon fill="white" stroke="#bfbfbf" points="0,-153 0,-172 83,-172 83,-153 0,-153"/>
<text text-anchor="middle" x="41.5" y="-160" font-family="Helvetica,sans-Serif" font-size="10.00">PropertyDrawer</text>
</a>
</g>
</g>
<!-- Node1 -->
<g id="node2" class="node">
<title>Node1</title>
<g id="a_node2"><a xlink:href="a00073.html" target="_top" xlink:title=" ">
<polygon fill="white" stroke="black" points="125.5,-294.5 125.5,-324.5 278.5,-324.5 278.5,-294.5 125.5,-294.5"/>
<text text-anchor="start" x="133.5" y="-312.5" font-family="Helvetica,sans-Serif" font-size="10.00">Lvl3Mage.EditorEnhancements.</text>
<text text-anchor="middle" x="202" y="-301.5" font-family="Helvetica,sans-Serif" font-size="10.00">Editor.ActionButtonDrawer</text>
</a>
</g>
</g>
<!-- Node0&#45;&gt;Node1 -->
<g id="edge1" class="edge">
<title>Node0&#45;&gt;Node1</title>
<path fill="none" stroke="midnightblue" d="M49.33,-181.7C59.98,-208.87 83.11,-258.24 119,-285.5 123.49,-288.91 128.45,-291.84 133.65,-294.35"/>
<polygon fill="midnightblue" stroke="midnightblue" points="52.54,-180.3 45.75,-172.16 45.99,-182.76 52.54,-180.3"/>
</g>
<!-- Node2 -->
<g id="node3" class="node">
<title>Node2</title>
<g id="a_node3"><a xlink:href="a00077.html" target="_top" xlink:title=" ">
<polygon fill="white" stroke="black" points="125.5,-245.5 125.5,-275.5 278.5,-275.5 278.5,-245.5 125.5,-245.5"/>
<text text-anchor="start" x="133.5" y="-263.5" font-family="Helvetica,sans-Serif" font-size="10.00">Lvl3Mage.EditorEnhancements.</text>
<text text-anchor="middle" x="202" y="-252.5" font-family="Helvetica,sans-Serif" font-size="10.00">Editor.DropdownFieldDrawer</text>
</a>
</g>
</g>
<!-- Node0&#45;&gt;Node2 -->
<g id="edge2" class="edge">
<title>Node0&#45;&gt;Node2</title>
<path fill="none" stroke="midnightblue" d="M56.35,-180.15C70.42,-196.95 93.7,-221.79 119,-236.5 124.9,-239.93 131.32,-242.9 137.9,-245.47"/>
<polygon fill="midnightblue" stroke="midnightblue" points="58.9,-177.74 49.87,-172.2 53.47,-182.16 58.9,-177.74"/>
</g>
<!-- Node3 -->
<g id="node4" class="node">
<title>Node3</title>
<g id="a_node4"><a xlink:href="a00081.html" target="_top" xlink:title=" ">
<polygon fill="white" stroke="black" points="119,-196.5 119,-226.5 285,-226.5 285,-196.5 119,-196.5"/>
<text text-anchor="start" x="127" y="-214.5" font-family="Helvetica,sans-Serif" font-size="10.00">Lvl3Mage.EditorEnhancements.</text>
<text text-anchor="middle" x="202" y="-203.5" font-family="Helvetica,sans-Serif" font-size="10.00">Editor.EnumSelectableFieldDrawer</text>
</a>
</g>
</g>
<!-- Node0&#45;&gt;Node3 -->
<g id="edge3" class="edge">
<title>Node0&#45;&gt;Node3</title>
<path fill="none" stroke="midnightblue" d="M80.96,-175.33C93.11,-179.31 106.59,-183.66 119,-187.5 128.49,-190.44 138.63,-193.48 148.43,-196.38"/>
<polygon fill="midnightblue" stroke="midnightblue" points="81.72,-171.89 71.13,-172.09 79.53,-178.54 81.72,-171.89"/>
</g>
<!-- Node4 -->
<g id="node5" class="node">
<title>Node4</title>
<g id="a_node5"><a xlink:href="a00085.html" target="_top" xlink:title=" ">
<polygon fill="white" stroke="black" points="125.5,-147.5 125.5,-177.5 278.5,-177.5 278.5,-147.5 125.5,-147.5"/>
<text text-anchor="start" x="133.5" y="-165.5" font-family="Helvetica,sans-Serif" font-size="10.00">Lvl3Mage.EditorEnhancements.</text>
<text text-anchor="middle" x="202" y="-154.5" font-family="Helvetica,sans-Serif" font-size="10.00">Editor.LabeledFieldDrawer</text>
</a>
</g>
</g>
<!-- Node0&#45;&gt;Node4 -->
<g id="edge4" class="edge">
<title>Node0&#45;&gt;Node4</title>
<path fill="none" stroke="midnightblue" d="M93.57,-162.5C103.69,-162.5 114.51,-162.5 125.24,-162.5"/>
<polygon fill="midnightblue" stroke="midnightblue" points="93.32,-159 83.32,-162.5 93.32,-166 93.32,-159"/>
</g>
<!-- Node5 -->
<g id="node6" class="node">
<title>Node5</title>
<g id="a_node6"><a xlink:href="a00089.html" target="_top" xlink:title=" ">
<polygon fill="white" stroke="black" points="121,-98.5 121,-128.5 283,-128.5 283,-98.5 121,-98.5"/>
<text text-anchor="start" x="129" y="-116.5" font-family="Helvetica,sans-Serif" font-size="10.00">Lvl3Mage.EditorEnhancements.</text>
<text text-anchor="middle" x="202" y="-105.5" font-family="Helvetica,sans-Serif" font-size="10.00">Editor.MessageBoxDisplayDrawer</text>
</a>
</g>
</g>
<!-- Node0&#45;&gt;Node5 -->
<g id="edge5" class="edge">
<title>Node0&#45;&gt;Node5</title>
<path fill="none" stroke="midnightblue" d="M82.25,-149.96C94.07,-146.25 107.05,-142.2 119,-138.5 129.52,-135.25 140.81,-131.78 151.55,-128.51"/>
<polygon fill="midnightblue" stroke="midnightblue" points="81.13,-146.65 72.64,-152.98 83.23,-153.32 81.13,-146.65"/>
</g>
<!-- Node6 -->
<g id="node7" class="node">
<title>Node6</title>
<g id="a_node7"><a xlink:href="a00093.html" target="_top" xlink:title=" ">
<polygon fill="white" stroke="black" points="125.5,-49.5 125.5,-79.5 278.5,-79.5 278.5,-49.5 125.5,-49.5"/>
<text text-anchor="start" x="133.5" y="-67.5" font-family="Helvetica,sans-Serif" font-size="10.00">Lvl3Mage.EditorEnhancements.</text>
<text text-anchor="middle" x="202" y="-56.5" font-family="Helvetica,sans-Serif" font-size="10.00">Editor.SubclassSelectorDrawer</text>
</a>
</g>
</g>
<!-- Node0&#45;&gt;Node6 -->
<g id="edge6" class="edge">
<title>Node0&#45;&gt;Node6</title>
<path fill="none" stroke="midnightblue" d="M56.44,-145.15C70.57,-128.63 93.9,-104.17 119,-89.5 125.55,-85.67 132.75,-82.37 140.07,-79.55"/>
<polygon fill="midnightblue" stroke="midnightblue" points="53.63,-143.05 49.92,-152.98 59.01,-147.53 53.63,-143.05"/>
</g>
<!-- Node7 -->
<g id="node8" class="node">
<title>Node7</title>
<g id="a_node8"><a xlink:href="a00097.html" target="_top" xlink:title=" ">
<polygon fill="white" stroke="black" points="125,-0.5 125,-30.5 279,-30.5 279,-0.5 125,-0.5"/>
<text text-anchor="start" x="133" y="-18.5" font-family="Helvetica,sans-Serif" font-size="10.00">Lvl3Mage.EditorEnhancements.</text>
<text text-anchor="middle" x="202" y="-7.5" font-family="Helvetica,sans-Serif" font-size="10.00">Editor.Texture2DPreviewDrawer</text>
</a>
</g>
</g>
<!-- Node0&#45;&gt;Node7 -->
<g id="edge7" class="edge">
<title>Node0&#45;&gt;Node7</title>
<path fill="none" stroke="midnightblue" d="M49.42,-143.51C60.17,-116.62 83.42,-67.73 119,-40.5 124.08,-36.61 129.77,-33.32 135.72,-30.54"/>
<polygon fill="midnightblue" stroke="midnightblue" points="46.11,-142.35 45.8,-152.94 52.65,-144.86 46.11,-142.35"/>
</g>
</g>
</svg>
