<?xml version="1.0" encoding="UTF-8" standalone="no"?>
<!DOCTYPE svg PUBLIC "-//W3C//DTD SVG 1.1//EN"
 "http://www.w3.org/Graphics/SVG/1.1/DTD/svg11.dtd">
<!-- Generated by graphviz version 3.0.0 (20221109.1736)
 -->
<!-- Title: Graphical Class Hierarchy Pages: 1 -->
<svg width="563pt" height="235pt"
 viewBox="0.00 0.00 563.00 235.00" xmlns="http://www.w3.org/2000/svg" xmlns:xlink="http://www.w3.org/1999/xlink">
<g id="graph0" class="graph" transform="scale(1 1) rotate(0) translate(4 231)">
<title>Graphical Class Hierarchy</title>
<polygon fill="white" stroke="transparent" points="-4,4 -4,-231 559,-231 559,4 -4,4"/>
<!-- Node0 -->
<g id="node1" class="node">
<title>Node0</title>
<g id="a_node1"><a xlink:href="a00082.html" target="_top" xlink:title="An interface that defines a labeled field.">
<polygon fill="white" stroke="black" points="0,-171.5 0,-201.5 153,-201.5 153,-171.5 0,-171.5"/>
<text text-anchor="start" x="8" y="-189.5" font-family="Helvetica,sans-Serif" font-size="10.00">Lvl3Mage.EditorEnhancements.</text>
<text text-anchor="middle" x="76.5" y="-178.5" font-family="Helvetica,sans-Serif" font-size="10.00">Runtime.ISourceLabeledField</text>
</a>
</g>
</g>
<!-- Node1 -->
<g id="node2" class="node">
<title>Node1</title>
<g id="a_node2"><a xlink:href="a00090.html" target="_top" xlink:title=" ">
<polygon fill="white" stroke="black" points="191,-147.5 191,-177.5 364,-177.5 364,-147.5 191,-147.5"/>
<text text-anchor="start" x="199" y="-165.5" font-family="Helvetica,sans-Serif" font-size="10.00">Lvl3Mage.EditorEnhancements.</text>
<text text-anchor="middle" x="277.5" y="-154.5" font-family="Helvetica,sans-Serif" font-size="10.00">Runtime.MethodSourceLabeledField</text>
</a>
</g>
</g>
<!-- Node0&#45;&gt;Node1 -->
<g id="edge1" class="edge">
<title>Node0&#45;&gt;Node1</title>
<path fill="none" stroke="midnightblue" d="M163.22,-176.16C172.33,-175.06 181.6,-173.95 190.71,-172.85"/>
<polygon fill="midnightblue" stroke="midnightblue" points="162.53,-172.72 153.02,-177.39 163.36,-179.67 162.53,-172.72"/>
</g>
<!-- Node7 -->
<g id="node3" class="node">
<title>Node7</title>
<g id="a_node3"><a xlink:href="a00086.html" target="_top" xlink:title=" ">
<polygon fill="white" stroke="black" points="189,-196.5 189,-226.5 366,-226.5 366,-196.5 189,-196.5"/>
<text text-anchor="start" x="197" y="-214.5" font-family="Helvetica,sans-Serif" font-size="10.00">Lvl3Mage.EditorEnhancements.</text>
<text text-anchor="middle" x="277.5" y="-203.5" font-family="Helvetica,sans-Serif" font-size="10.00">Runtime.PropertySourceLabeledField</text>
</a>
</g>
</g>
<!-- Node0&#45;&gt;Node7 -->
<g id="edge2" class="edge">
<title>Node0&#45;&gt;Node7</title>
<path fill="none" stroke="midnightblue" d="M162.95,-197.23C171.47,-198.31 180.14,-199.39 188.69,-200.47"/>
<polygon fill="midnightblue" stroke="midnightblue" points="163.38,-193.76 153.02,-195.99 162.5,-200.71 163.38,-193.76"/>
</g>
<!-- Node2 -->
<g id="node4" class="node">
<title>Node2</title>
<g id="a_node4"><a xlink:title=" ">
<polygon fill="white" stroke="#bfbfbf" points="32,-104 32,-123 121,-123 121,-104 32,-104"/>
<text text-anchor="middle" x="76.5" y="-111" font-family="Helvetica,sans-Serif" font-size="10.00">PropertyAttribute</text>
</a>
</g>
</g>
<!-- Node2&#45;&gt;Node1 -->
<g id="edge7" class="edge">
<title>Node2&#45;&gt;Node1</title>
<path fill="none" stroke="midnightblue" d="M126.29,-125.51C153.18,-132.14 186.81,-140.42 215.43,-147.46"/>
<polygon fill="midnightblue" stroke="midnightblue" points="126.89,-122.06 116.34,-123.06 125.21,-128.85 126.89,-122.06"/>
</g>
<!-- Node2&#45;&gt;Node7 -->
<g id="edge8" class="edge">
<title>Node2&#45;&gt;Node7</title>
<path fill="none" stroke="midnightblue" d="M101.26,-128.65C116.19,-138.24 135.81,-150.96 153,-162.5 169.17,-173.36 171.35,-179.25 189,-187.5 196.13,-190.84 203.82,-193.78 211.57,-196.37"/>
<polygon fill="midnightblue" stroke="midnightblue" points="102.94,-125.57 92.63,-123.12 99.16,-131.47 102.94,-125.57"/>
</g>
<!-- Node3 -->
<g id="node5" class="node">
<title>Node3</title>
<g id="a_node5"><a xlink:href="a00066.html" target="_top" xlink:title="An attribute that adds a button to the inspector. The button will call a method on the target object ...">
<polygon fill="white" stroke="black" points="201,-98.5 201,-128.5 354,-128.5 354,-98.5 201,-98.5"/>
<text text-anchor="start" x="209" y="-116.5" font-family="Helvetica,sans-Serif" font-size="10.00">Lvl3Mage.EditorEnhancements.</text>
<text text-anchor="middle" x="277.5" y="-105.5" font-family="Helvetica,sans-Serif" font-size="10.00">Runtime.ActionButton</text>
</a>
</g>
</g>
<!-- Node2&#45;&gt;Node3 -->
<g id="edge3" class="edge">
<title>Node2&#45;&gt;Node3</title>
<path fill="none" stroke="midnightblue" d="M131.35,-113.5C152.73,-113.5 177.7,-113.5 200.84,-113.5"/>
<polygon fill="midnightblue" stroke="midnightblue" points="131.17,-110 121.17,-113.5 131.17,-117 131.17,-110"/>
</g>
<!-- Node6 -->
<g id="node8" class="node">
<title>Node6</title>
<g id="a_node8"><a xlink:href="a00078.html" target="_top" xlink:title=" ">
<polygon fill="white" stroke="black" points="201,-49.5 201,-79.5 354,-79.5 354,-49.5 201,-49.5"/>
<text text-anchor="start" x="209" y="-67.5" font-family="Helvetica,sans-Serif" font-size="10.00">Lvl3Mage.EditorEnhancements.</text>
<text text-anchor="middle" x="277.5" y="-56.5" font-family="Helvetica,sans-Serif" font-size="10.00">Runtime.EnumSelectableField</text>
</a>
</g>
</g>
<!-- Node2&#45;&gt;Node6 -->
<g id="edge6" class="edge">
<title>Node2&#45;&gt;Node6</title>
<path fill="none" stroke="midnightblue" d="M126.29,-101.49C153.18,-94.86 186.81,-86.58 215.43,-79.54"/>
<polygon fill="midnightblue" stroke="midnightblue" points="125.21,-98.15 116.34,-103.94 126.89,-104.94 125.21,-98.15"/>
</g>
<!-- Node8 -->
<g id="node9" class="node">
<title>Node8</title>
<g id="a_node9"><a xlink:href="a00094.html" target="_top" xlink:title=" ">
<polygon fill="white" stroke="black" points="201,-0.5 201,-30.5 354,-30.5 354,-0.5 201,-0.5"/>
<text text-anchor="start" x="209" y="-18.5" font-family="Helvetica,sans-Serif" font-size="10.00">Lvl3Mage.EditorEnhancements.</text>
<text text-anchor="middle" x="277.5" y="-7.5" font-family="Helvetica,sans-Serif" font-size="10.00">Runtime.Texture2DPreview</text>
</a>
</g>
</g>
<!-- Node2&#45;&gt;Node8 -->
<g id="edge9" class="edge">
<title>Node2&#45;&gt;Node8</title>
<path fill="none" stroke="midnightblue" d="M97.12,-97.65C118.54,-81.04 154.43,-55.22 189,-39.5 196.31,-36.17 204.18,-33.22 212.1,-30.62"/>
<polygon fill="midnightblue" stroke="midnightblue" points="94.82,-95 89.13,-103.94 99.15,-100.5 94.82,-95"/>
</g>
<!-- Node4 -->
<g id="node6" class="node">
<title>Node4</title>
<g id="a_node6"><a xlink:href="a00070.html" target="_top" xlink:title=" ">
<polygon fill="white" stroke="black" points="402,-122.5 402,-152.5 555,-152.5 555,-122.5 402,-122.5"/>
<text text-anchor="start" x="410" y="-140.5" font-family="Helvetica,sans-Serif" font-size="10.00">Lvl3Mage.EditorEnhancements.</text>
<text text-anchor="middle" x="478.5" y="-129.5" font-family="Helvetica,sans-Serif" font-size="10.00">Runtime.FieldActionButton</text>
</a>
</g>
</g>
<!-- Node3&#45;&gt;Node4 -->
<g id="edge4" class="edge">
<title>Node3&#45;&gt;Node4</title>
<path fill="none" stroke="midnightblue" d="M363.99,-123.81C376.53,-125.32 389.38,-126.87 401.7,-128.36"/>
<polygon fill="midnightblue" stroke="midnightblue" points="364.36,-120.33 354.02,-122.61 363.53,-127.28 364.36,-120.33"/>
</g>
<!-- Node5 -->
<g id="node7" class="node">
<title>Node5</title>
<g id="a_node7"><a xlink:href="a00074.html" target="_top" xlink:title=" ">
<polygon fill="white" stroke="black" points="402,-73.5 402,-103.5 555,-103.5 555,-73.5 402,-73.5"/>
<text text-anchor="start" x="410" y="-91.5" font-family="Helvetica,sans-Serif" font-size="10.00">Lvl3Mage.EditorEnhancements.</text>
<text text-anchor="middle" x="478.5" y="-80.5" font-family="Helvetica,sans-Serif" font-size="10.00">Runtime.ParentActionButton</text>
</a>
</g>
</g>
<!-- Node3&#45;&gt;Node5 -->
<g id="edge5" class="edge">
<title>Node3&#45;&gt;Node5</title>
<path fill="none" stroke="midnightblue" d="M363.99,-102.76C376.53,-101.18 389.38,-99.57 401.7,-98.02"/>
<polygon fill="midnightblue" stroke="midnightblue" points="363.5,-99.29 354.02,-104.01 364.38,-106.24 363.5,-99.29"/>
</g>
</g>
</svg>
