<?xml version="1.0" encoding="UTF-8" standalone="no"?>
<!DOCTYPE svg PUBLIC "-//W3C//DTD SVG 1.1//EN"
 "http://www.w3.org/Graphics/SVG/1.1/DTD/svg11.dtd">
<!-- Generated by graphviz version 3.0.0 (20221109.1736)
 -->
<!-- Title: Graphical Class Hierarchy Pages: 1 -->
<svg width="293pt" height="284pt"
 viewBox="0.00 0.00 293.00 284.00" xmlns="http://www.w3.org/2000/svg" xmlns:xlink="http://www.w3.org/1999/xlink">
<g id="graph0" class="graph" transform="scale(1 1) rotate(0) translate(4 280)">
<title>Graphical Class Hierarchy</title>
<polygon fill="white" stroke="transparent" points="-4,4 -4,-280 289,-280 289,4 -4,4"/>
<!-- Node0 -->
<g id="node1" class="node">
<title>Node0</title>
<g id="a_node1"><a xlink:title=" ">
<polygon fill="white" stroke="#bfbfbf" points="0,-128 0,-147 83,-147 83,-128 0,-128"/>
<text text-anchor="middle" x="41.5" y="-135" font-family="Helvetica,sans-Serif" font-size="10.00">PropertyDrawer</text>
</a>
</g>
</g>
<!-- Node1 -->
<g id="node2" class="node">
<title>Node1</title>
<g id="a_node2"><a xlink:href="a00067.html" target="_top" xlink:title=" ">
<polygon fill="white" stroke="black" points="125.5,-245.5 125.5,-275.5 278.5,-275.5 278.5,-245.5 125.5,-245.5"/>
<text text-anchor="start" x="133.5" y="-263.5" font-family="Helvetica,sans-Serif" font-size="10.00">Lvl3Mage.EditorEnhancements.</text>
<text text-anchor="middle" x="202" y="-252.5" font-family="Helvetica,sans-Serif" font-size="10.00">Editor.ActionButtonDrawer</text>
</a>
</g>
</g>
<!-- Node0&#45;&gt;Node1 -->
<g id="edge1" class="edge">
<title>Node0&#45;&gt;Node1</title>
<path fill="none" stroke="midnightblue" d="M51.92,-155.83C64.32,-178.16 88.21,-215.49 119,-236.5 124.02,-239.93 129.54,-242.87 135.27,-245.4"/>
<polygon fill="midnightblue" stroke="midnightblue" points="55,-154.16 47.19,-147.01 48.83,-157.47 55,-154.16"/>
</g>
<!-- Node2 -->
<g id="node3" class="node">
<title>Node2</title>
<g id="a_node3"><a xlink:href="a00071.html" target="_top" xlink:title=" ">
<polygon fill="white" stroke="black" points="125.5,-196.5 125.5,-226.5 278.5,-226.5 278.5,-196.5 125.5,-196.5"/>
<text text-anchor="start" x="133.5" y="-214.5" font-family="Helvetica,sans-Serif" font-size="10.00">Lvl3Mage.EditorEnhancements.</text>
<text text-anchor="middle" x="202" y="-203.5" font-family="Helvetica,sans-Serif" font-size="10.00">Editor.DropdownFieldDrawer</text>
</a>
</g>
</g>
<!-- Node0&#45;&gt;Node2 -->
<g id="edge2" class="edge">
<title>Node0&#45;&gt;Node2</title>
<path fill="none" stroke="midnightblue" d="M62.98,-153.28C77.85,-164.13 98.83,-178.21 119,-187.5 126.14,-190.79 133.84,-193.75 141.56,-196.37"/>
<polygon fill="midnightblue" stroke="midnightblue" points="64.67,-150.18 54.56,-147.01 60.49,-155.79 64.67,-150.18"/>
</g>
<!-- Node3 -->
<g id="node4" class="node">
<title>Node3</title>
<g id="a_node4"><a xlink:href="a00075.html" target="_top" xlink:title=" ">
<polygon fill="white" stroke="black" points="119,-147.5 119,-177.5 285,-177.5 285,-147.5 119,-147.5"/>
<text text-anchor="start" x="127" y="-165.5" font-family="Helvetica,sans-Serif" font-size="10.00">Lvl3Mage.EditorEnhancements.</text>
<text text-anchor="middle" x="202" y="-154.5" font-family="Helvetica,sans-Serif" font-size="10.00">Editor.EnumSelectableFieldDrawer</text>
</a>
</g>
</g>
<!-- Node0&#45;&gt;Node3 -->
<g id="edge3" class="edge">
<title>Node0&#45;&gt;Node3</title>
<path fill="none" stroke="midnightblue" d="M93.35,-145.52C101.48,-146.8 110.08,-148.16 118.73,-149.52"/>
<polygon fill="midnightblue" stroke="midnightblue" points="93.74,-142.04 83.32,-143.94 92.65,-148.95 93.74,-142.04"/>
</g>
<!-- Node4 -->
<g id="node5" class="node">
<title>Node4</title>
<g id="a_node5"><a xlink:href="a00079.html" target="_top" xlink:title=" ">
<polygon fill="white" stroke="black" points="125.5,-98.5 125.5,-128.5 278.5,-128.5 278.5,-98.5 125.5,-98.5"/>
<text text-anchor="start" x="133.5" y="-116.5" font-family="Helvetica,sans-Serif" font-size="10.00">Lvl3Mage.EditorEnhancements.</text>
<text text-anchor="middle" x="202" y="-105.5" font-family="Helvetica,sans-Serif" font-size="10.00">Editor.LabeledFieldDrawer</text>
</a>
</g>
</g>
<!-- Node0&#45;&gt;Node4 -->
<g id="edge4" class="edge">
<title>Node0&#45;&gt;Node4</title>
<path fill="none" stroke="midnightblue" d="M93.25,-129.82C103.46,-128.27 114.39,-126.61 125.24,-124.97"/>
<polygon fill="midnightblue" stroke="midnightblue" points="92.68,-126.36 83.32,-131.32 93.73,-133.28 92.68,-126.36"/>
</g>
<!-- Node5 -->
<g id="node6" class="node">
<title>Node5</title>
<g id="a_node6"><a xlink:href="a00083.html" target="_top" xlink:title=" ">
<polygon fill="white" stroke="black" points="121,-49.5 121,-79.5 283,-79.5 283,-49.5 121,-49.5"/>
<text text-anchor="start" x="129" y="-67.5" font-family="Helvetica,sans-Serif" font-size="10.00">Lvl3Mage.EditorEnhancements.</text>
<text text-anchor="middle" x="202" y="-56.5" font-family="Helvetica,sans-Serif" font-size="10.00">Editor.MessageBoxDisplayDrawer</text>
</a>
</g>
</g>
<!-- Node0&#45;&gt;Node5 -->
<g id="edge5" class="edge">
<title>Node0&#45;&gt;Node5</title>
<path fill="none" stroke="midnightblue" d="M63.9,-121.91C78.78,-111.63 99.39,-98.45 119,-89.5 127.12,-85.79 135.94,-82.45 144.69,-79.5"/>
<polygon fill="midnightblue" stroke="midnightblue" points="61.59,-119.26 55.44,-127.88 65.63,-124.98 61.59,-119.26"/>
</g>
<!-- Node6 -->
<g id="node7" class="node">
<title>Node6</title>
<g id="a_node7"><a xlink:href="a00087.html" target="_top" xlink:title=" ">
<polygon fill="white" stroke="black" points="125,-0.5 125,-30.5 279,-30.5 279,-0.5 125,-0.5"/>
<text text-anchor="start" x="133" y="-18.5" font-family="Helvetica,sans-Serif" font-size="10.00">Lvl3Mage.EditorEnhancements.</text>
<text text-anchor="middle" x="202" y="-7.5" font-family="Helvetica,sans-Serif" font-size="10.00">Editor.Texture2DPreviewDrawer</text>
</a>
</g>
</g>
<!-- Node0&#45;&gt;Node6 -->
<g id="edge6" class="edge">
<title>Node0&#45;&gt;Node6</title>
<path fill="none" stroke="midnightblue" d="M52.41,-118.97C65.05,-97.08 88.9,-61.07 119,-40.5 124.65,-36.64 130.92,-33.36 137.4,-30.57"/>
<polygon fill="midnightblue" stroke="midnightblue" points="49.23,-117.48 47.42,-127.92 55.35,-120.89 49.23,-117.48"/>
</g>
</g>
</svg>
