<?xml version="1.0" encoding="UTF-8" standalone="no"?>
<!DOCTYPE svg PUBLIC "-//W3C//DTD SVG 1.1//EN"
 "http://www.w3.org/Graphics/SVG/1.1/DTD/svg11.dtd">
<!-- Generated by graphviz version 3.0.0 (20221109.1736)
 -->
<!-- Title: Graphical Class Hierarchy Pages: 1 -->
<svg width="563pt" height="284pt"
 viewBox="0.00 0.00 563.00 284.00" xmlns="http://www.w3.org/2000/svg" xmlns:xlink="http://www.w3.org/1999/xlink">
<g id="graph0" class="graph" transform="scale(1 1) rotate(0) translate(4 280)">
<title>Graphical Class Hierarchy</title>
<polygon fill="white" stroke="transparent" points="-4,4 -4,-280 559,-280 559,4 -4,4"/>
<!-- Node0 -->
<g id="node1" class="node">
<title>Node0</title>
<g id="a_node1"><a xlink:href="a00113.html" target="_top" xlink:title=" ">
<polygon fill="white" stroke="black" points="0,-245.5 0,-275.5 153,-275.5 153,-245.5 0,-245.5"/>
<text text-anchor="start" x="8" y="-263.5" font-family="Helvetica,sans-Serif" font-size="10.00">Lvl3Mage.EditorEnhancements.</text>
<text text-anchor="middle" x="76.5" y="-252.5" font-family="Helvetica,sans-Serif" font-size="10.00">Runtime.IMessageBoxDisplay</text>
</a>
</g>
</g>
<!-- Node1 -->
<g id="node2" class="node">
<title>Node1</title>
<g id="a_node2"><a xlink:href="a00121.html" target="_top" xlink:title=" ">
<polygon fill="white" stroke="black" points="201,-245.5 201,-275.5 354,-275.5 354,-245.5 201,-245.5"/>
<text text-anchor="start" x="209" y="-263.5" font-family="Helvetica,sans-Serif" font-size="10.00">Lvl3Mage.EditorEnhancements.</text>
<text text-anchor="middle" x="277.5" y="-252.5" font-family="Helvetica,sans-Serif" font-size="10.00">Runtime.MessageBoxDisplay</text>
</a>
</g>
</g>
<!-- Node0&#45;&gt;Node1 -->
<g id="edge1" class="edge">
<title>Node0&#45;&gt;Node1</title>
<path fill="none" stroke="midnightblue" d="M163.37,-260.5C175.79,-260.5 188.5,-260.5 200.7,-260.5"/>
<polygon fill="midnightblue" stroke="midnightblue" points="163.02,-257 153.02,-260.5 163.02,-264 163.02,-257"/>
</g>
<!-- Node8 -->
<g id="node3" class="node">
<title>Node8</title>
<g id="a_node3"><a xlink:href="a00101.html" target="_top" xlink:title="An interface that defines a labeled field.">
<polygon fill="white" stroke="black" points="0,-170.5 0,-200.5 153,-200.5 153,-170.5 0,-170.5"/>
<text text-anchor="start" x="8" y="-188.5" font-family="Helvetica,sans-Serif" font-size="10.00">Lvl3Mage.EditorEnhancements.</text>
<text text-anchor="middle" x="76.5" y="-177.5" font-family="Helvetica,sans-Serif" font-size="10.00">Runtime.ISourceLabeledField</text>
</a>
</g>
</g>
<!-- Node7 -->
<g id="node4" class="node">
<title>Node7</title>
<g id="a_node4"><a xlink:href="a00109.html" target="_top" xlink:title=" ">
<polygon fill="white" stroke="black" points="191,-196.5 191,-226.5 364,-226.5 364,-196.5 191,-196.5"/>
<text text-anchor="start" x="199" y="-214.5" font-family="Helvetica,sans-Serif" font-size="10.00">Lvl3Mage.EditorEnhancements.</text>
<text text-anchor="middle" x="277.5" y="-203.5" font-family="Helvetica,sans-Serif" font-size="10.00">Runtime.MethodSourceLabeledField</text>
</a>
</g>
</g>
<!-- Node8&#45;&gt;Node7 -->
<g id="edge2" class="edge">
<title>Node8&#45;&gt;Node7</title>
<path fill="none" stroke="midnightblue" d="M163.22,-196.7C172.33,-197.89 181.6,-199.1 190.71,-200.29"/>
<polygon fill="midnightblue" stroke="midnightblue" points="163.39,-193.19 153.02,-195.37 162.48,-200.13 163.39,-193.19"/>
</g>
<!-- Node9 -->
<g id="node5" class="node">
<title>Node9</title>
<g id="a_node5"><a xlink:href="a00105.html" target="_top" xlink:title=" ">
<polygon fill="white" stroke="black" points="189,-147.5 189,-177.5 366,-177.5 366,-147.5 189,-147.5"/>
<text text-anchor="start" x="197" y="-165.5" font-family="Helvetica,sans-Serif" font-size="10.00">Lvl3Mage.EditorEnhancements.</text>
<text text-anchor="middle" x="277.5" y="-154.5" font-family="Helvetica,sans-Serif" font-size="10.00">Runtime.PropertySourceLabeledField</text>
</a>
</g>
</g>
<!-- Node8&#45;&gt;Node9 -->
<g id="edge3" class="edge">
<title>Node8&#45;&gt;Node9</title>
<path fill="none" stroke="midnightblue" d="M163.22,-175.59C171.66,-174.62 180.23,-173.63 188.69,-172.65"/>
<polygon fill="midnightblue" stroke="midnightblue" points="162.55,-172.15 153.02,-176.77 163.35,-179.1 162.55,-172.15"/>
</g>
<!-- Node2 -->
<g id="node6" class="node">
<title>Node2</title>
<g id="a_node6"><a xlink:title=" ">
<polygon fill="white" stroke="#bfbfbf" points="32,-130 32,-149 121,-149 121,-130 32,-130"/>
<text text-anchor="middle" x="76.5" y="-137" font-family="Helvetica,sans-Serif" font-size="10.00">PropertyAttribute</text>
</a>
</g>
</g>
<!-- Node2&#45;&gt;Node1 -->
<g id="edge8" class="edge">
<title>Node2&#45;&gt;Node1</title>
<path fill="none" stroke="midnightblue" d="M130.81,-148.85C138.83,-151.94 146.56,-156.04 153,-161.5 181.2,-185.42 160.61,-212.81 189,-236.5 193.11,-239.93 197.67,-242.88 202.5,-245.4"/>
<polygon fill="midnightblue" stroke="midnightblue" points="131.91,-145.53 121.32,-145.67 129.69,-152.16 131.91,-145.53"/>
</g>
<!-- Node2&#45;&gt;Node7 -->
<g id="edge9" class="edge">
<title>Node2&#45;&gt;Node7</title>
<path fill="none" stroke="midnightblue" d="M129.39,-152.06C137.47,-154.74 145.59,-157.88 153,-161.5 170.73,-170.16 171.2,-178.98 189,-187.5 196.1,-190.9 203.77,-193.89 211.51,-196.5"/>
<polygon fill="midnightblue" stroke="midnightblue" points="130.19,-148.64 119.6,-149.01 128.11,-155.33 130.19,-148.64"/>
</g>
<!-- Node2&#45;&gt;Node9 -->
<g id="edge10" class="edge">
<title>Node2&#45;&gt;Node9</title>
<path fill="none" stroke="midnightblue" d="M131.3,-145.72C149.03,-147.77 169.24,-150.1 188.82,-152.37"/>
<polygon fill="midnightblue" stroke="midnightblue" points="131.51,-142.22 121.17,-144.55 130.7,-149.17 131.51,-142.22"/>
</g>
<!-- Node3 -->
<g id="node7" class="node">
<title>Node3</title>
<g id="a_node7"><a xlink:href="a00081.html" target="_top" xlink:title="An attribute that adds a button to the inspector. The button will call a method on the target object ...">
<polygon fill="white" stroke="black" points="201,-98.5 201,-128.5 354,-128.5 354,-98.5 201,-98.5"/>
<text text-anchor="start" x="209" y="-116.5" font-family="Helvetica,sans-Serif" font-size="10.00">Lvl3Mage.EditorEnhancements.</text>
<text text-anchor="middle" x="277.5" y="-105.5" font-family="Helvetica,sans-Serif" font-size="10.00">Runtime.ActionButton</text>
</a>
</g>
</g>
<!-- Node2&#45;&gt;Node3 -->
<g id="edge4" class="edge">
<title>Node2&#45;&gt;Node3</title>
<path fill="none" stroke="midnightblue" d="M131.35,-132.46C152.73,-129.67 177.7,-126.41 200.84,-123.39"/>
<polygon fill="midnightblue" stroke="midnightblue" points="130.63,-129.03 121.17,-133.79 131.54,-135.97 130.63,-129.03"/>
</g>
<!-- Node6 -->
<g id="node10" class="node">
<title>Node6</title>
<g id="a_node10"><a xlink:href="a00097.html" target="_top" xlink:title=" ">
<polygon fill="white" stroke="black" points="201,-49.5 201,-79.5 354,-79.5 354,-49.5 201,-49.5"/>
<text text-anchor="start" x="209" y="-67.5" font-family="Helvetica,sans-Serif" font-size="10.00">Lvl3Mage.EditorEnhancements.</text>
<text text-anchor="middle" x="277.5" y="-56.5" font-family="Helvetica,sans-Serif" font-size="10.00">Runtime.EnumSelectableField</text>
</a>
</g>
</g>
<!-- Node2&#45;&gt;Node6 -->
<g id="edge7" class="edge">
<title>Node2&#45;&gt;Node6</title>
<path fill="none" stroke="midnightblue" d="M105.23,-125.3C127.48,-114.28 159.72,-99.13 189,-88.5 197.74,-85.33 207.09,-82.34 216.32,-79.63"/>
<polygon fill="midnightblue" stroke="midnightblue" points="103.43,-122.29 96.05,-129.89 106.56,-128.55 103.43,-122.29"/>
</g>
<!-- Node10 -->
<g id="node11" class="node">
<title>Node10</title>
<g id="a_node11"><a xlink:href="a00125.html" target="_top" xlink:title=" ">
<polygon fill="white" stroke="black" points="201,-0.5 201,-30.5 354,-30.5 354,-0.5 201,-0.5"/>
<text text-anchor="start" x="209" y="-18.5" font-family="Helvetica,sans-Serif" font-size="10.00">Lvl3Mage.EditorEnhancements.</text>
<text text-anchor="middle" x="277.5" y="-7.5" font-family="Helvetica,sans-Serif" font-size="10.00">Runtime.Texture2DPreview</text>
</a>
</g>
</g>
<!-- Node2&#45;&gt;Node10 -->
<g id="edge11" class="edge">
<title>Node2&#45;&gt;Node10</title>
<path fill="none" stroke="midnightblue" d="M92.03,-122.22C111.75,-99.88 149.13,-61.25 189,-39.5 195.22,-36.11 201.96,-33.16 208.84,-30.62"/>
<polygon fill="midnightblue" stroke="midnightblue" points="89.27,-120.07 85.37,-129.92 94.56,-124.65 89.27,-120.07"/>
</g>
<!-- Node4 -->
<g id="node8" class="node">
<title>Node4</title>
<g id="a_node8"><a xlink:href="a00085.html" target="_top" xlink:title=" ">
<polygon fill="white" stroke="black" points="402,-122.5 402,-152.5 555,-152.5 555,-122.5 402,-122.5"/>
<text text-anchor="start" x="410" y="-140.5" font-family="Helvetica,sans-Serif" font-size="10.00">Lvl3Mage.EditorEnhancements.</text>
<text text-anchor="middle" x="478.5" y="-129.5" font-family="Helvetica,sans-Serif" font-size="10.00">Runtime.FieldActionButton</text>
</a>
</g>
</g>
<!-- Node3&#45;&gt;Node4 -->
<g id="edge5" class="edge">
<title>Node3&#45;&gt;Node4</title>
<path fill="none" stroke="midnightblue" d="M363.99,-123.81C376.53,-125.32 389.38,-126.87 401.7,-128.36"/>
<polygon fill="midnightblue" stroke="midnightblue" points="364.36,-120.33 354.02,-122.61 363.53,-127.28 364.36,-120.33"/>
</g>
<!-- Node5 -->
<g id="node9" class="node">
<title>Node5</title>
<g id="a_node9"><a xlink:href="a00089.html" target="_top" xlink:title=" ">
<polygon fill="white" stroke="black" points="402,-73.5 402,-103.5 555,-103.5 555,-73.5 402,-73.5"/>
<text text-anchor="start" x="410" y="-91.5" font-family="Helvetica,sans-Serif" font-size="10.00">Lvl3Mage.EditorEnhancements.</text>
<text text-anchor="middle" x="478.5" y="-80.5" font-family="Helvetica,sans-Serif" font-size="10.00">Runtime.ParentActionButton</text>
</a>
</g>
</g>
<!-- Node3&#45;&gt;Node5 -->
<g id="edge6" class="edge">
<title>Node3&#45;&gt;Node5</title>
<path fill="none" stroke="midnightblue" d="M363.99,-102.76C376.53,-101.18 389.38,-99.57 401.7,-98.02"/>
<polygon fill="midnightblue" stroke="midnightblue" points="363.5,-99.29 354.02,-104.01 364.38,-106.24 363.5,-99.29"/>
</g>
</g>
</svg>
